<?xml version="1.0" encoding="UTF-8"?>
<svg version="1.1" xmlns="http://www.w3.org/2000/svg" width="2000" height="2000">
<path d="M0 0 C660 0 1320 0 2000 0 C2000 660 2000 1320 2000 2000 C1340 2000 680 2000 0 2000 C0 1340 0 680 0 0 Z " fill="#FEFEFE" transform="translate(0,0)"/>
<path d="M0 0 C3.97945825 1.50792547 7.99026793 2.90879196 12.01464844 4.29101562 C46.36388096 16.30155792 79.54059896 32.77161543 111.3581543 50.37915039 C121.65767374 56.07511836 132.07935018 61.53961647 142.4921875 67.0246582 C143.20570877 67.40104935 143.91923004 67.77744049 144.65437317 68.16523743 C145.98964184 68.86952918 147.32544561 69.57280787 148.66191101 70.27482605 C151.78681841 71.92328957 154.85057129 73.62443424 157.8828125 75.43847656 C160.84820445 77.47387388 160.84820445 77.47387388 163.53417969 76.71289062 C164.37335937 76.20242188 165.21253906 75.69195312 166.07714844 75.16601562 C166.6461084 74.82892578 167.21506836 74.49183594 167.80126953 74.14453125 C169.81188549 72.9351845 171.78845424 71.68076125 173.76464844 70.41601562 C175.20576797 69.50670689 176.64717321 68.5978508 178.08886719 67.68945312 C179.41843028 66.84852229 180.74787189 66.00739933 182.07714844 65.16601562 C189.69581363 60.35075537 197.60577016 56.26720671 205.70166016 52.32714844 C208.22005403 51.09616372 210.72833784 49.84577834 213.23730469 48.59570312 C233.15936877 38.76739047 253.79832892 30.49400246 274.99365234 23.83105469 C277.11801261 23.15297204 279.22826208 22.44036916 281.33886719 21.72070312 C295.98014241 16.80693887 311.0126163 13.49695898 326.07714844 10.16601562 C327.26945068 9.90095215 328.46175293 9.63588867 329.69018555 9.36279297 C341.7463199 6.7244539 353.85500356 4.84949734 366.07714844 3.16601562 C367.14819824 3.01068359 368.21924805 2.85535156 369.32275391 2.6953125 C388.65226826 -0.0136927 407.96444816 -0.12442699 427.45214844 -0.14648438 C428.72789734 -0.15006958 430.00364624 -0.15365479 431.3180542 -0.15734863 C453.24625444 -0.1904595 474.96714923 0.93480688 496.70214844 3.91601562 C497.93884277 4.08447998 499.17553711 4.25294434 500.44970703 4.42651367 C533.79580127 9.14015059 566.36393715 16.84166227 598.07714844 28.16601562 C599.00575684 28.49714355 599.93436523 28.82827148 600.89111328 29.16943359 C638.90061717 42.87401392 684.89947846 61.11737385 714.9609375 88.9074707 C717.08875564 90.43646626 717.08875564 90.43646626 720.01611328 90.02416992 C723.0898382 89.16245808 725.34317617 88.10474473 728.05371094 86.43554688 C728.96540039 85.88294189 729.87708984 85.33033691 730.81640625 84.76098633 C731.76870117 84.172771 732.72099609 83.58455566 733.70214844 82.97851562 C740.39260579 78.93141063 747.03355501 75.0372542 754.08886719 71.65429688 C757.84623384 69.78298093 761.48395823 67.72720266 765.13964844 65.66601562 C791.21754684 51.03913264 818.22570648 36.85179721 845.72949219 25.07226562 C849.44911374 23.47187836 853.10087226 21.74213061 856.76074219 20.00976562 C865.5471023 15.8770428 874.4733579 12.08627575 883.42675781 8.33203125 C886.18073026 7.17501397 888.92969988 6.00663773 891.67871094 4.83789062 C937.7491077 -14.59759244 937.7491077 -14.59759244 950.38183594 -9.99414062 C956.50327715 -6.56382357 959.52330833 -1.52161899 962.18652344 4.79882812 C968.18742463 27.4864458 959.32979803 54.13212574 952.27050781 75.53173828 C951.21552278 78.744608 950.18425287 81.96356376 949.16171265 85.18681335 C943.49256316 103.02068101 937.13902068 120.2461403 929.07714844 137.16601562 C928.60696289 138.16391113 928.13677734 139.16180664 927.65234375 140.18994141 C914.37159112 168.2036075 897.63981531 194.13422692 878.07714844 218.16601562 C877.41247559 218.98513428 877.41247559 218.98513428 876.734375 219.82080078 C874.19527388 222.94691834 871.64291451 226.06175544 869.07714844 229.16601562 C869.94658654 230.96038789 870.82308758 232.75133787 871.70214844 234.54101562 C872.43304687 236.03761719 872.43304687 236.03761719 873.17871094 237.56445312 C874.63661754 240.43029275 876.27167225 243.1557529 877.95214844 245.89648438 C881.13231437 251.1470657 883.83548237 256.55439535 886.45214844 262.10351562 C886.92765137 263.10930664 887.4031543 264.11509766 887.89306641 265.15136719 C905.23015667 302.09122337 916.42818509 340.77483296 922.07714844 381.16601562 C922.24085937 382.26864746 922.40457031 383.3712793 922.57324219 384.50732422 C925.03268396 401.4922088 925.33781671 418.34861668 925.32714844 435.47851562 C925.32655426 436.5335025 925.32596008 437.58848938 925.3253479 438.67544556 C925.28958577 455.29544977 924.81149405 471.66860347 922.36865234 488.13623047 C922.0644671 490.25431766 921.79391038 492.37503777 921.52636719 494.49804688 C918.69615799 516.04122709 913.40341633 537.41287867 906.74609375 558.08154297 C906.1283052 560.00660818 905.53518527 561.93954337 904.94433594 563.87304688 C899.26015663 581.89944767 891.31656044 599.15361056 882.92456055 616.05615234 C882.43737549 617.04502441 881.95019043 618.03389648 881.44824219 619.05273438 C880.79746704 620.35537231 880.79746704 620.35537231 880.13354492 621.68432617 C879.04814314 624.23415495 878.34833653 626.40612669 878.07714844 629.16601562 C879.58540678 631.39468192 881.00809329 633.15990448 882.82714844 635.10351562 C883.8581005 636.26031858 884.88667841 637.41924101 885.91308594 638.58007812 C886.70730957 639.47001465 886.70730957 639.47001465 887.51757812 640.37792969 C889.94218368 643.15779992 892.19743052 646.06042547 894.45214844 648.97851562 C897.34551689 652.70771136 900.26119741 656.40985782 903.27246094 660.04492188 C918.68682684 678.65422385 931.37375598 698.94202722 942.95898438 720.12207031 C943.70563 721.48689938 944.4563004 722.8495342 945.2109375 724.20996094 C964.05146997 758.27580958 978.12457369 794.98865179 990.04296875 831.97119141 C991.21720284 835.5986766 992.42548788 839.21371199 993.64355469 842.82666016 C1013.65716074 902.22568074 1028.1397588 964.64521232 1037.24511719 1026.65429688 C1037.93551214 1031.32780088 1038.73757834 1035.96664102 1039.63964844 1040.60351562 C1042.2549464 1054.16065477 1044.21058119 1067.77569265 1045.86123657 1081.48127747 C1046.63406473 1087.82960161 1047.50390278 1094.15517546 1048.4524231 1100.47944641 C1050.9685095 1117.36364522 1052.78091968 1134.28858686 1054.48016357 1151.27020264 C1054.77713742 1154.22450856 1055.07965895 1157.17823506 1055.38228416 1160.13196659 C1057.08905393 1176.7976018 1058.72558338 1193.46718147 1060.07714844 1210.16601562 C1060.13529724 1210.8779306 1060.19344604 1211.58984558 1060.25335693 1212.32333374 C1061.69966504 1230.25825761 1062.29194278 1248.17564969 1062.37469482 1266.16604614 C1062.38454071 1268.26476717 1062.39894857 1270.36347254 1062.41827393 1272.46212769 C1062.7036499 1307.77262465 1062.7036499 1307.77262465 1051.22558594 1321.35742188 C1041.98642601 1330.17327368 1029.47669456 1330.6333001 1017.32324219 1330.44726562 C1007.76896019 1330.08488057 998.41137753 1328.12293141 989.07714844 1326.16601562 C988.21831055 1325.98941406 987.35947266 1325.8128125 986.47460938 1325.63085938 C974.13811051 1323.02761225 962.6506181 1318.92172172 950.99121094 1314.15429688 C943.35190284 1310.9357788 943.35190284 1310.9357788 935.20214844 1310.04101562 C934.03039063 1310.06808594 934.03039063 1310.06808594 932.83496094 1310.09570312 C932.25488281 1310.11890625 931.67480469 1310.14210938 931.07714844 1310.16601562 C929.67767845 1311.71844035 929.67767845 1311.71844035 929.07714844 1314.16601562 C930.13654373 1316.96147199 931.20904849 1319.18189615 932.70214844 1321.72851562 C933.03988281 1322.40076172 933.37761719 1323.07300781 933.72558594 1323.765625 C936.25534645 1328.12772917 938.6362371 1329.71691849 943.50683594 1331.02929688 C950.47433186 1332.40239453 957.51004115 1333.14743414 964.57714844 1333.79101562 C965.88417725 1333.91653809 967.19120605 1334.04206055 968.5378418 1334.17138672 C977.0332474 1334.96177842 985.5225239 1335.57661884 994.04980469 1335.87548828 C999.65113505 1336.07641628 999.65113505 1336.07641628 1002.32446289 1336.63867188 C1005.84234966 1337.3126085 1009.36172884 1337.56204312 1012.92871094 1337.81445312 C1014.50506011 1337.93209702 1016.08139415 1338.04994383 1017.65771484 1338.16796875 C1018.89246552 1338.25896851 1018.89246552 1338.25896851 1020.15216064 1338.35180664 C1113.00626015 1345.24157682 1113.00626015 1345.24157682 1131.82714844 1364.79101562 C1139.35408468 1374.10757308 1141.55080255 1384.3248178 1140.40234375 1396.02441406 C1138.73964924 1406.97423104 1133.19389728 1415.74658198 1125.07714844 1423.16601562 C1124.45066406 1423.74867187 1123.82417969 1424.33132813 1123.17871094 1424.93164062 C1109.7379889 1436.16059828 1092.0274083 1436.08583113 1075.5065918 1434.70214844 C1063.98406726 1433.61348083 1052.56522844 1431.7724553 1041.14379883 1429.9309082 C1040.1370385 1429.76871292 1040.1370385 1429.76871292 1039.10993958 1429.60324097 C1037.27478881 1429.30643881 1035.44011132 1429.00671458 1033.60546875 1428.70678711 C1026.04316184 1427.5477427 1018.83745517 1427.00680999 1011.19042969 1426.99804688 C1010.17039352 1426.99471848 1009.15035736 1426.99139008 1008.09941101 1426.98796082 C1005.9555201 1426.98292293 1003.81162143 1426.98055151 1001.66772461 1426.98071289 C998.38935572 1426.97851543 995.11131779 1426.96029646 991.83300781 1426.94140625 C989.74381625 1426.93847386 987.6546231 1426.93648803 985.56542969 1426.93554688 C984.58826492 1426.92836136 983.61110016 1426.92117584 982.60432434 1426.91377258 C976.12196762 1426.93549293 976.12196762 1426.93549293 970.07714844 1429.16601562 C971.44900034 1446.17697926 979.16255356 1461.70478414 986.83496094 1476.72070312 C990.06675297 1483.06980953 993.08920067 1489.52075239 996.14599609 1495.95532227 C998.4292842 1500.75245721 1000.74712646 1505.51623733 1003.20214844 1510.22851562 C1006.00127396 1515.77780238 1008.38664136 1521.48953464 1010.76464844 1527.22851562 C1011.14572754 1528.13931885 1011.52680664 1529.05012207 1011.91943359 1529.98852539 C1016.74119599 1541.80471461 1020.90431708 1554.33636908 1017.23339844 1567.09960938 C1012.8694643 1576.78577399 1005.59937185 1581.37859988 996.00683594 1585.22070312 C969.71380266 1593.70458853 933.6294859 1580.52786027 908.02148438 1573.91015625 C905.15371669 1573.1853672 902.27928063 1572.50437982 899.39746094 1571.83789062 C883.11724219 1568.02677 867.40563755 1562.82750011 851.61572266 1557.38037109 C848.7979025 1556.41336147 845.97590302 1555.46807133 843.14355469 1554.54492188 C829.71381932 1550.10686543 816.92320998 1544.0435179 804.07714844 1538.16601562 C803.18141113 1537.75947754 802.28567383 1537.35293945 801.36279297 1536.93408203 C757.74484456 1517.08735486 709.24551251 1489.57843871 675.67871094 1454.77148438 C673.90537529 1452.99382352 672.04412439 1451.36460018 670.13964844 1449.72851562 C667.29104447 1447.28135585 664.63183709 1444.7339916 662.01464844 1442.04101562 C656.00766953 1435.76101674 656.00766953 1435.76101674 648.12011719 1432.77929688 C644.25497292 1433.27050263 643.40384612 1434.34616823 641.01464844 1437.35351562 C640.33144531 1438.1759375 639.64824219 1438.99835938 638.94433594 1439.84570312 C638.32816406 1440.61140625 637.71199219 1441.37710937 637.07714844 1442.16601562 C628.8961941 1451.60557832 616.3853235 1453.49905326 604.43994141 1454.35498047 C592.82367938 1454.92157751 582.02310423 1454.07749165 570.67382812 1451.60058594 C561.38176656 1449.6385737 551.60096105 1449.03451425 542.19433594 1450.66601562 C521.43212467 1453.99629513 502.03917112 1449.23267077 485.01464844 1436.97851562 C476.09523239 1429.99608589 468.65045399 1422.21934905 461.82714844 1413.22851562 C461.30886475 1412.55030762 460.79058105 1411.87209961 460.2565918 1411.17333984 C457.17271932 1407.01402226 455.13486911 1403.03076596 453.13964844 1398.22851562 C451.60972632 1395.23636057 451.60972632 1395.23636057 449.07714844 1393.16601562 C444.27893456 1392.13323838 439.80171235 1392.16296012 434.91308594 1392.22851562 C426.23391714 1392.3028554 417.68404768 1391.16852074 409.07714844 1390.16601562 C394.9730557 1388.55227668 380.98501281 1386.97003928 366.76464844 1387.10351562 C365.82169922 1387.10802734 364.87875 1387.11253906 363.90722656 1387.1171875 C361.63046054 1387.12874469 359.35384355 1387.1450278 357.07714844 1387.16601562 C355.1778332 1390.67597642 354.91462923 1393.03409571 354.88964844 1397.04101562 C354.28270299 1406.66543624 349.55938427 1416.63720608 342.84277344 1423.65429688 C338.87905583 1427.04801084 334.66577316 1429.69566907 330.07714844 1432.16601562 C329.15160156 1432.67777344 328.22605469 1433.18953125 327.27246094 1433.71679688 C318.85561646 1437.51829788 310.64103656 1437.65529697 301.51464844 1437.72851562 C300.29600098 1437.74325928 299.07735352 1437.75800293 297.82177734 1437.77319336 C285.95822096 1437.63970637 275.8030304 1435.37963659 266.58886719 1427.65429688 C263.18817932 1425.63927031 259.98663363 1424.916335 256.07714844 1425.16601562 C253.48683097 1426.33948159 251.50843404 1427.41278044 249.20214844 1428.97851562 C243.52412124 1432.49406012 238.77973071 1434.70446056 232.07714844 1435.16601562 C231.00980469 1435.2459375 229.94246094 1435.32585937 228.84277344 1435.40820312 C209.76100642 1436.12906988 194.02546416 1427.73570459 180.23730469 1415.20507812 C168.28591177 1403.93551164 160.34236154 1389.58271914 155.07714844 1374.16601562 C155.07714844 1373.50601562 155.07714844 1372.84601563 155.07714844 1372.16601562 C153.12421875 1372.07513672 153.12421875 1372.07513672 151.13183594 1371.98242188 C149.40526445 1371.89797001 147.67870243 1371.81332436 145.95214844 1371.72851562 C145.09621094 1371.68919922 144.24027344 1371.64988281 143.35839844 1371.609375 C142.52050781 1371.56748047 141.68261719 1371.52558594 140.81933594 1371.48242188 C140.05476074 1371.44576416 139.29018555 1371.40910645 138.50244141 1371.37133789 C136.07714844 1371.16601562 136.07714844 1371.16601562 133.22583008 1370.67749023 C129.79438197 1370.12008279 126.42624805 1369.87088439 122.95605469 1369.66601562 C122.2930687 1369.62541016 121.6300827 1369.58480469 120.94700623 1369.54296875 C118.84472059 1369.41434226 116.74222959 1369.28971108 114.63964844 1369.16601562 C111.86990556 1369.00265791 109.10043562 1368.83538567 106.33105469 1368.66601562 C105.10717041 1368.59382813 103.88328613 1368.52164062 102.62231445 1368.44726562 C100.28181016 1368.26158551 97.94593063 1368.00051836 95.62280273 1367.66064453 C91.77882604 1367.1243988 87.96506932 1366.91690803 84.09277344 1366.75195312 C73.97024415 1366.25001717 63.92027555 1365.21535573 53.84716797 1364.11914062 C50.84499784 1363.79295496 47.84203583 1363.47504894 44.83886719 1363.15820312 C34.3383392 1362.03762419 23.87348443 1360.76386298 13.41526794 1359.30114746 C3.51176472 1357.92597168 -6.4167335 1356.78858305 -16.35101318 1355.66104126 C-19.70872453 1355.27984755 -23.06606887 1354.89554995 -26.42333984 1354.51049805 C-31.0267419 1353.98272529 -35.63025196 1353.45591494 -40.23388672 1352.93017578 C-50.25588902 1351.78550104 -60.27737216 1350.63644912 -70.29785156 1349.47851562 C-71.6521376 1349.32242325 -71.6521376 1349.32242325 -73.03378296 1349.16317749 C-82.34860697 1348.0876795 -91.64532023 1346.96879939 -100.92285156 1345.60351562 C-113.49023924 1343.76936337 -126.16328675 1342.78580586 -138.80810547 1341.64624023 C-148.65269374 1340.75779529 -158.47802378 1339.8005092 -168.29785156 1338.66601562 C-180.455213 1337.28458248 -192.63940275 1336.42073331 -204.84124756 1335.540802 C-236.83598315 1333.22874975 -268.73879866 1330.26519962 -300.48535156 1325.60351562 C-302.41846191 1325.32519897 -302.41846191 1325.32519897 -304.390625 1325.04125977 C-318.99161536 1322.78139723 -332.05853499 1319.51636196 -341.86035156 1307.79101562 C-348.20474948 1298.87294685 -348.96065108 1289.98219285 -347.92285156 1279.16601562 C-345.34416044 1268.60170039 -339.58402824 1263.25809771 -330.64160156 1257.68164062 C-325.86667122 1255.01975417 -322.63396181 1253.88412406 -317.13378906 1254.39648438 C-315.89338867 1254.50653809 -314.65298828 1254.6165918 -313.375 1254.72998047 C-311.89093485 1254.87516539 -310.40688671 1255.02052427 -308.92285156 1255.16601562 C-307.13419281 1255.33173841 -305.34545013 1255.496557 -303.55664062 1255.66064453 C-297.2185246 1256.24769336 -290.88320845 1256.86251473 -284.54785156 1257.47851562 C-282.21061939 1257.70450379 -279.87337971 1257.93041421 -277.53613281 1258.15625 C-263.20146822 1259.54387046 -248.87009927 1260.96256577 -234.54095459 1262.40594482 C-220.25530038 1263.84419531 -205.96508011 1265.23221444 -191.67285156 1266.60351562 C-190.03867783 1266.76036331 -190.03867783 1266.76036331 -188.37149048 1266.92037964 C-178.30144681 1267.88658773 -168.23117635 1268.85041648 -158.16064453 1269.81152344 C-113.90173767 1274.03569975 -113.90173767 1274.03569975 -93.0440979 1276.15597534 C-91.35893207 1276.32723538 -89.67369191 1276.49776588 -87.9883728 1276.66751099 C-85.6967279 1276.89879976 -83.40544721 1277.13338766 -81.11425781 1277.36914062 C-79.83752197 1277.4996582 -78.56078613 1277.63017578 -77.24536133 1277.76464844 C-74.42494857 1278.1053611 -71.6957497 1278.55722599 -68.92285156 1279.16601562 C-68.92285156 1267.53534777 -79.8257841 1259.02332764 -87.42285156 1251.41601562 C-92.50320505 1246.35291119 -97.65942169 1241.43488456 -103.09033203 1236.74902344 C-113.84982679 1227.45451717 -123.86501597 1217.3284335 -133.92285156 1207.29101562 C-134.51288971 1206.70356567 -135.10292786 1206.11611572 -135.71084595 1205.51086426 C-141.4788926 1199.76276376 -147.19047062 1194.0298496 -152.47753906 1187.82958984 C-154.66980773 1185.30625898 -157.03115008 1183.00144178 -159.42285156 1180.66601562 C-163.06058727 1177.07679944 -166.5315514 1173.4127209 -169.84863281 1169.52539062 C-172.79919512 1166.16919546 -175.86487162 1162.92420626 -178.92285156 1159.66601562 C-183.68820691 1154.57876047 -188.40068743 1149.47202154 -192.92285156 1144.16601562 C-194.16421875 1142.74289062 -194.16421875 1142.74289062 -195.43066406 1141.29101562 C-208.15877269 1126.60836973 -221.26158829 1111.00160719 -221.29785156 1090.60351562 C-221.32234375 1089.87455078 -221.34683594 1089.14558594 -221.37207031 1088.39453125 C-221.40017917 1083.18970814 -220.3123816 1080.31014907 -216.92285156 1076.16601562 C-210.19567637 1070.23969462 -204.69175148 1070.67199309 -195.92285156 1071.16601562 C-188.04492895 1072.36145153 -182.75502325 1077.02211265 -176.92285156 1082.16601562 C-176.15457031 1082.83632812 -175.38628906 1083.50664063 -174.59472656 1084.19726562 C-172.00962292 1086.49133111 -169.46278801 1088.82199714 -166.92285156 1091.16601562 C-166.3430957 1091.7006543 -165.76333984 1092.23529297 -165.16601562 1092.78613281 C-146.35189644 1110.16272508 -146.35189644 1110.16272508 -139.76269531 1117.83789062 C-134.81454606 1123.52859258 -129.37740375 1128.72334981 -123.97949219 1133.98242188 C-122.80870117 1135.13677734 -122.80870117 1135.13677734 -121.61425781 1136.31445312 C-120.90470947 1137.00716309 -120.19516113 1137.69987305 -119.46411133 1138.41357422 C-117.92285156 1140.16601562 -117.92285156 1140.16601562 -117.92285156 1142.16601562 C-116.93285156 1142.49601562 -115.94285156 1142.82601563 -114.92285156 1143.16601562 C-114.36597656 1143.86726563 -113.80910156 1144.56851562 -113.23535156 1145.29101562 C-111.30744922 1147.68786718 -109.55121766 1149.44017749 -107.23535156 1151.41601562 C-104.15479821 1154.0450593 -101.26451198 1156.78018432 -98.42285156 1159.66601562 C-95.67429166 1162.45222703 -92.89425365 1165.11909955 -89.92285156 1167.66601562 C-86.95144947 1170.2129317 -84.17141146 1172.87980422 -81.42285156 1175.66601562 C-78.13042906 1178.99763363 -74.74997103 1182.12580841 -71.19628906 1185.17382812 C-68.34180565 1187.67517957 -65.57358511 1190.26574384 -62.79785156 1192.85351562 C-57.16629022 1198.08551286 -51.38820024 1203.11813585 -45.52832031 1208.09179688 C-43.05369566 1210.19330139 -40.60046892 1212.31662187 -38.16113281 1214.45898438 C-30.90449842 1220.8287279 -23.56439395 1226.94453693 -15.82958984 1232.73193359 C-13.63059205 1234.38582771 -11.44694778 1236.05910565 -9.26269531 1237.73242188 C1.21545512 1245.72499122 11.82717522 1253.29769147 23.07714844 1260.16601562 C24.18775635 1260.84591553 24.18775635 1260.84591553 25.32080078 1261.53955078 C37.51314924 1268.94195559 50.08879314 1275.28444261 63.07714844 1281.16601562 C64.1509375 1281.65714844 65.22472656 1282.14828125 66.33105469 1282.65429688 C83.64617017 1290.21580534 101.56709051 1294.69353007 120.07714844 1298.16601562 C121.69836596 1298.47787286 123.3194691 1298.79032565 124.94042969 1299.10351562 C128.64871364 1299.81376088 132.36003905 1300.50320576 136.07714844 1301.16601562 C137.06585937 1301.34261719 138.05457031 1301.51921875 139.07324219 1301.70117188 C148.99389248 1303.58818104 148.99389248 1303.58818104 158.15527344 1300.67382812 C160.14922264 1297.95392654 161.58225091 1295.19541061 163.07714844 1292.16601562 C164.42061501 1289.57030879 165.77524364 1286.98061093 167.13110352 1284.39135742 C168.07292399 1282.57561404 168.99940238 1280.75180363 169.90795898 1278.91918945 C176.74535012 1265.34138252 186.61119336 1254.68696729 201.07714844 1249.16601562 C202.06714844 1249.16601562 203.05714844 1249.16601562 204.07714844 1249.16601562 C200.26504784 1235.41875129 184.02867786 1227.05149798 173.07714844 1219.16601562 C154.71261201 1205.89335461 137.3660298 1189.42992757 122.73730469 1172.10742188 C120.62012382 1169.63156566 118.40933014 1167.24940294 116.20214844 1164.85351562 C111.28533395 1159.44944925 106.61429717 1153.89082976 102.07714844 1148.16601562 C101.56667969 1147.52277344 101.05621094 1146.87953125 100.53027344 1146.21679688 C34.7917309 1063.12205035 -10.61609332 961.02769836 -11.36035156 846.04101562 C-11.36974762 844.18256012 -11.36974762 844.18256012 -11.3793335 842.28656006 C-11.43449046 825.03900531 -10.26734794 808.24961232 -7.92285156 791.16601562 C-7.69760026 789.4530145 -7.47271965 787.73996457 -7.24829102 786.02685547 C-1.45924188 741.88000138 15.83236647 697.03499816 39.07714844 659.16601562 C35.70040722 654.42032527 32.15596278 650.13614293 28.13964844 645.91601562 C16.08133728 633.05718765 5.97750606 618.34464988 -2.92285156 603.16601562 C-3.29571289 602.53840332 -3.66857422 601.91079102 -4.05273438 601.26416016 C-24.35510134 566.94349219 -38.62061723 527.7575556 -43.92285156 488.16601562 C-44.05820312 487.23450684 -44.19355469 486.30299805 -44.33300781 485.34326172 C-50.28134965 443.63118444 -47.6262496 401.23925042 -38.92285156 360.16601562 C-38.72320801 359.21533203 -38.52356445 358.26464844 -38.31787109 357.28515625 C-29.07393265 314.37217172 -10.37150413 270.93817819 15.07714844 235.16601562 C15.60308594 234.41835938 16.12902344 233.67070312 16.67089844 232.90039062 C17.794987 231.31417676 18.93366497 229.73830539 20.07714844 228.16601562 C18.70037155 225.02888223 17.15209337 223.09974881 14.63964844 220.79101562 C8.80842608 215.09687445 3.96916219 208.66365817 -0.92285156 202.16601562 C-1.33792969 201.61703613 -1.75300781 201.06805664 -2.18066406 200.50244141 C-33.51448846 158.74506655 -55.56732239 108.53402676 -64.92285156 57.16601562 C-65.13022949 56.03437988 -65.33760742 54.90274414 -65.55126953 53.73681641 C-73.52265775 8.9142991 -73.52265775 8.9142991 -62.92285156 -6.83398438 C-47.01507638 -22.32313389 -16.80322344 -6.45110646 0 0 Z " fill="#010101" transform="translate(603.9228515625,212.833984375)"/>
<path d="M0 0 C6.67926446 0.51450917 12.25847141 2.93802349 18.375 5.5625 C19.9691272 6.23804932 19.9691272 6.23804932 21.59545898 6.92724609 C34.37883665 12.38310721 46.83464365 18.26423814 59.04956055 24.89208984 C62.81487775 26.91721058 66.62602633 28.83721095 70.45703125 30.734375 C78.71216757 34.84365314 86.92676606 39.02848537 95.125 43.25 C95.84320923 43.61949768 96.56141846 43.98899536 97.3013916 44.36968994 C105.84322654 48.76792154 114.34346814 53.22187371 122.75 57.875 C132.95458529 63.52148994 143.31498946 68.85817903 153.6875 74.1875 C154.52365845 74.61794617 155.35981689 75.04839233 156.22131348 75.49188232 C158.60843754 76.71988703 160.99722218 77.94458808 163.38671875 79.16796875 C164.11068344 79.54029129 164.83464813 79.91261383 165.58055115 80.29621887 C173.93447807 84.55867491 180.68947901 85.23092653 189.75 82.5625 C199.15015444 79.13661251 207.13521722 73.11187537 215.14990234 67.25683594 C243.01625929 46.95454248 276.90618768 34.15530443 309.55615234 23.78369141 C311.91623448 23.02686187 314.26516933 22.24230297 316.61328125 21.44921875 C343.78589612 12.38683479 372.37964315 7.3162018 400.75 3.75 C402.69350342 3.50515869 402.69350342 3.50515869 404.67626953 3.25537109 C420.34116242 1.36931719 435.78219806 0.83773641 451.54077148 0.86962891 C454.66460083 0.87496091 457.78828453 0.86966793 460.91210938 0.86328125 C478.64048502 0.85566586 496.22132009 1.33225035 513.8125 3.6875 C515.11872314 3.86047607 516.42494629 4.03345215 517.77075195 4.21166992 C585.38622114 13.40462057 656.24000123 35.99924949 710.26171875 79.046875 C714.31204638 82.26455688 718.4282308 85.39122707 722.5625 88.5 C723.22926758 89.0043457 723.89603516 89.50869141 724.58300781 90.02832031 C726.37508694 91.37215189 728.18299053 92.69017457 730 94 C730.85464844 94.6290625 731.70929687 95.258125 732.58984375 95.90625 C735.92061215 97.41778185 737.50412541 97.04661767 741 96 C743.74202597 94.7421488 746.3308703 93.26571987 748.9375 91.75 C750.10224854 91.08834839 750.10224854 91.08834839 751.29052734 90.41333008 C752.97790622 89.45398024 754.66304858 88.49068832 756.34619141 87.52392578 C760.92829213 84.89269554 765.52694235 82.29071405 770.125 79.6875 C771.0855127 79.14279053 772.04602539 78.59808105 773.03564453 78.03686523 C781.08793767 73.48339799 789.20739547 69.06146552 797.35205078 64.67578125 C803.4325905 61.39988176 809.47752609 58.06873399 815.5 54.6875 C826.87412577 48.32846773 838.53334828 42.59878781 850.36352539 37.14013672 C854.41342785 35.26032203 858.40405679 33.28709899 862.38076782 31.25642395 C871.03682892 26.85494486 879.84089624 22.95830142 888.81884766 19.26245117 C891.13353241 18.30898533 893.44390025 17.34559789 895.75390625 16.38085938 C920.7275705 6 920.7275705 6 925 6 C919.48635147 35.49609178 908.00455555 63.56155469 894 90 C893.63471191 90.69335449 893.26942383 91.38670898 892.89306641 92.10107422 C879.32939817 117.6627103 862.5989998 141.25607761 843.12890625 162.65625 C837.97006206 168.33571149 832.98291271 174.16634609 828 180 C832.65971164 188.64787661 837.74908967 196.75042969 843.52246094 204.69702148 C850.23683984 213.96715977 856.02200635 223.46919134 860.9375 233.8125 C861.71226685 235.43937744 861.71226685 235.43937744 862.50268555 237.09912109 C875.33181438 264.51561477 883.79375459 294.22775827 889 324 C889.27650391 325.52173828 889.27650391 325.52173828 889.55859375 327.07421875 C893.02723188 346.78361217 894.17583836 366.53153924 894.13037109 386.5144043 C894.1250277 389.29807022 894.13034152 392.08157342 894.13671875 394.86523438 C894.14571291 412.15182154 893.2930759 429.12827291 890.875 446.25 C890.76806824 447.01703247 890.66113647 447.78406494 890.55096436 448.57434082 C886.29467622 478.74174361 878.89206842 508.90464022 867 537 C866.60828613 537.93392578 866.21657227 538.86785156 865.81298828 539.83007812 C850.31279954 576.57565358 850.31279954 576.57565358 841.58984375 588.33203125 C839.77547442 590.86044486 839.77547442 590.86044486 839.99609375 593.640625 C841.23677904 596.55647682 842.59789021 597.75856237 845.0625 599.75 C879.68507738 629.51152784 905.49579715 670.26065987 927 710 C927.60682617 711.1122998 928.21365234 712.22459961 928.83886719 713.37060547 C933.48493106 721.93698024 937.76267053 730.60430718 941.75 739.5 C942.04614197 740.15885193 942.34228394 740.81770386 942.6473999 741.496521 C954.68526807 768.36154873 964.27516451 795.90096065 973 824 C973.35433105 825.13518066 973.70866211 826.27036133 974.07373047 827.43994141 C985.2022033 863.37812788 993.03581674 900.64533554 999.41601562 937.68652344 C1000.15624682 941.88653088 1000.96169524 946.07253927 1001.76806641 950.26025391 C1009.66906004 991.62128814 1014.86352283 1033.44745463 1020.24928474 1075.19298363 C1020.93359105 1080.49461823 1021.6265099 1085.79509884 1022.32095337 1091.09541321 C1022.81755282 1094.89698007 1023.30800639 1098.69931219 1023.79559326 1102.50204468 C1024.01296033 1104.19162359 1024.23235926 1105.88094251 1024.45391846 1107.56997681 C1024.74929812 1109.8284232 1025.03615493 1112.08777473 1025.3203125 1114.34765625 C1025.47773926 1115.57492432 1025.63516602 1116.80219238 1025.79736328 1118.06665039 C1026 1121 1026 1121 1025 1124 C1016.39279929 1118.29473603 1008.39828095 1112.23400053 1000.63256836 1105.42773438 C999.48294473 1104.42235094 998.32688721 1103.42430082 997.16625977 1102.43164062 C991.73784223 1097.76000161 986.62313941 1092.81571273 981.5625 1087.75 C980.72211182 1086.90880615 979.88172363 1086.0676123 979.01586914 1085.20092773 C973.26075087 1079.38866724 968.01938092 1073.45780071 963 1067 C961.42011463 1065.14289454 959.8365597 1063.28890671 958.25 1061.4375 C938.94053236 1038.24222618 923.79374875 1011.92628491 909.75 985.3125 C909.03251587 983.95729248 909.03251587 983.95729248 908.30053711 982.57470703 C907.86620361 981.74181152 907.43187012 980.90891602 906.984375 980.05078125 C906.59991211 979.31512939 906.21544922 978.57947754 905.81933594 977.8215332 C905 976 905 976 905 974 C903.68 974.66 902.36 975.32 901 976 C901.11834651 978.0212339 901.24522053 980.04196798 901.375 982.0625 C901.44460938 983.18785156 901.51421875 984.31320312 901.5859375 985.47265625 C902.55000524 997.1733794 904.56250466 1008.56814529 907.1875 1020 C907.33928711 1020.66642517 907.49107422 1021.33285034 907.64746094 1022.01947021 C910.51039499 1034.53997066 914.00640126 1046.79405213 918 1059 C918.53669166 1060.67570654 919.07315322 1062.35148679 919.609375 1064.02734375 C926.18507225 1084.34593174 933.70772754 1104.35810332 941.625 1124.1875 C945.83944381 1134.74310696 949.60601737 1145.39328658 953.09619141 1156.2097168 C955.18342165 1162.70947378 955.18342165 1162.70947378 957.70703125 1169.046875 C959.02714286 1172.06199397 959.60293774 1174.74408943 960 1178 C957.15875809 1176.6799177 954.83776067 1175.20153376 952.42578125 1173.20703125 C951.76271973 1172.66272461 951.0996582 1172.11841797 950.41650391 1171.55761719 C949.72218262 1170.98172852 949.02786133 1170.40583984 948.3125 1169.8125 C946.86913131 1168.62552131 945.42512599 1167.43931633 943.98046875 1166.25390625 C943.29001465 1165.68687988 942.59956055 1165.11985352 941.88818359 1164.53564453 C939.66687777 1162.72907437 937.40511921 1160.98158066 935.125 1159.25 C931.11692847 1156.16569352 927.38009165 1152.82175919 923.65234375 1149.40625 C921.55618635 1147.50458144 919.43449565 1145.65330775 917.2890625 1143.80859375 C912.46597783 1139.59765026 907.9524606 1135.09908053 903.4375 1130.5625 C902.62603516 1129.75490234 901.81457031 1128.94730469 900.97851562 1128.11523438 C896.68676328 1123.81655426 892.55336209 1119.44370717 888.59301758 1114.83813477 C886.17788817 1112.05139005 883.6472234 1109.37690981 881.125 1106.6875 C875.82697036 1100.9853554 870.85525974 1095.08536749 866 1089 C865.07908815 1087.87030792 864.15715889 1086.74144468 863.234375 1085.61328125 C834.95052176 1050.88209741 811.63844718 1012.27842676 793.1875 971.5 C792.81407471 970.67483887 792.44064941 969.84967773 792.0559082 968.99951172 C789.84723951 964.05871234 787.84910029 959.08648408 786 954 C783.85969522 955.59640812 783.85969522 955.59640812 782 958 C781.65583596 961.03890526 781.65583596 961.03890526 782.12109375 964.375 C782.24983887 965.62410156 782.37858398 966.87320313 782.51123047 968.16015625 C783.2705386 974.12539017 784.08853796 980.06557166 785.0625 986 C785.16682343 986.64275879 785.27114685 987.28551758 785.37863159 987.94775391 C787.29716563 999.69482741 789.61462664 1011.35289536 792.0625 1023 C792.22799347 1023.79116211 792.39348694 1024.58232422 792.56399536 1025.39746094 C794.72877351 1035.69553752 797.19979003 1045.85601603 800 1056 C800.41420916 1057.55430215 800.82721998 1059.10892488 801.23828125 1060.6640625 C809.53670388 1091.50628043 821.67672886 1120.52491382 836.703125 1148.66015625 C837.46897414 1150.10665219 838.23460132 1151.55326566 839 1153 C839.60424805 1154.12124268 839.60424805 1154.12124268 840.22070312 1155.26513672 C841.20829888 1157.14588833 842.11221595 1159.07012657 843 1161 C842.67 1161.66 842.34 1162.32 842 1163 C841.10474609 1162.34257812 841.10474609 1162.34257812 840.19140625 1161.671875 C835.16531335 1157.99752477 830.1133312 1154.37142407 825.00952148 1150.80615234 C806.19467827 1137.64028127 787.88841127 1123.58606874 771.1015625 1107.890625 C768.9452655 1105.8594355 768.9452655 1105.8594355 766 1104 C766 1103.34 766 1102.68 766 1102 C765.40198074 1101.72697052 764.80396149 1101.45394104 764.18782043 1101.17263794 C762.06210124 1100.03328531 760.68704991 1098.93493985 758.99487305 1097.23779297 C758.43716721 1096.68316376 757.87946136 1096.12853455 757.30485535 1095.55709839 C756.71312027 1094.9581778 756.12138519 1094.3592572 755.51171875 1093.7421875 C754.89029495 1093.12030548 754.26887115 1092.49842346 753.62861633 1091.85769653 C752.31424584 1090.54030786 751.00230375 1089.22049249 749.69262695 1087.8984375 C747.71023096 1085.89793854 745.72010482 1083.90540487 743.72851562 1081.9140625 C737.61130563 1075.77990346 731.56788314 1069.64443798 726 1063 C725.03934456 1061.89315435 724.07712715 1060.78766225 723.11328125 1059.68359375 C706.9036029 1040.94427948 691.90394857 1021.54837607 679.29541016 1000.18066406 C678.04374886 998.07364584 676.76642107 995.98466058 675.48046875 993.8984375 C660.08663097 968.70852114 648.71284816 941.08096783 641.60839844 912.44970703 C641.02899895 910.11676385 640.42850174 907.79042404 639.8203125 905.46484375 C633.50172445 881.02144444 631.70928285 856.46983268 631.6875 831.3125 C631.6823941 829.92479904 631.6823941 829.92479904 631.67718506 828.50906372 C631.58876472 786.55826767 640.06180405 743.78160847 657.80859375 705.7109375 C661.45687019 697.40961341 664.31069597 688.90723941 666 680 C657.80587941 680.78789621 653.22326423 685.81957762 647.625 691.38525391 C645.98360968 693.0162869 644.32196223 694.62431542 642.65625 696.23046875 C635.92034779 702.78193321 629.81675677 709.60903458 624 717 C623.35933594 717.75023437 622.71867187 718.50046875 622.05859375 719.2734375 C597.94715884 747.81747964 588.83801634 784.5094683 583.25 820.625 C583.07645996 821.74104614 583.07645996 821.74104614 582.89941406 822.87963867 C576.91917409 864.23690616 581.46151162 907.78767557 592 948 C592.22300781 948.88187988 592.44601562 949.76375977 592.67578125 950.67236328 C597.99341411 971.69845513 605.41673351 992.10459797 614 1012 C614.3727002 1012.86641113 614.74540039 1013.73282227 615.12939453 1014.62548828 C619.58855181 1024.9243409 624.39344731 1034.95668916 629.76171875 1044.8125 C631.5423248 1048.08965918 633.19674419 1051.41752457 634.83984375 1054.765625 C637.91139454 1060.93483453 641.31300272 1066.8528363 644.875 1072.75 C645.84240112 1074.35584961 645.84240112 1074.35584961 646.8293457 1075.99414062 C653.86326963 1087.56845863 661.34158508 1098.83147824 669 1110 C669.54785156 1110.79905762 670.09570312 1111.59811523 670.66015625 1112.42138672 C684.80455927 1132.95115463 700.36732203 1152.41541635 716.58007812 1171.34179688 C717.55443614 1172.47966477 718.52700016 1173.61907059 719.49804688 1174.75976562 C730.31330931 1187.45712922 741.48355965 1199.87934419 753.55859375 1211.3984375 C755 1213 755 1213 755 1215 C755.99 1215.33 756.98 1215.66 758 1216 C759.68359375 1217.7421875 759.68359375 1217.7421875 761.4375 1219.875 C763.27778615 1222.10639842 764.8860263 1223.9162724 767.22265625 1225.6328125 C768.10244141 1226.30957031 768.10244141 1226.30957031 769 1227 C769 1227.66 769 1228.32 769 1229 C769.58104492 1229.25434814 770.16208984 1229.50869629 770.76074219 1229.77075195 C773.24179642 1231.13273495 774.85518103 1232.6431444 776.828125 1234.66796875 C777.54613281 1235.39693359 778.26414062 1236.12589844 779.00390625 1236.87695312 C780.11572266 1238.02067383 780.11572266 1238.02067383 781.25 1239.1875 C786.64570012 1244.71258192 792.13925058 1249.97131236 798 1255 C799.60768373 1256.45445517 801.21239715 1257.91220895 802.8125 1259.375 C807.23873012 1263.37222628 811.80625458 1267.16166032 816.4375 1270.91796875 C819.68208987 1273.55419802 822.87525214 1276.22244635 826 1279 C826 1279.33 826 1279.66 826 1280 C805.2044835 1279.55418826 784.43019485 1278.65930592 763.65487289 1277.65945816 C761.64560702 1277.56348431 759.6362541 1277.46959353 757.62686157 1277.37631226 C749.08066533 1276.97623861 740.53950931 1276.52395378 732 1276 C730.48903244 1275.91220276 730.48903244 1275.91220276 728.94754028 1275.82263184 C726.27823986 1275.65694423 723.61472254 1275.45588111 720.94921875 1275.23828125 C720.19689972 1275.19401505 719.44458069 1275.14974884 718.66946411 1275.10414124 C714.78368512 1274.73756529 713.11716775 1274.10727677 710.20336914 1271.43945312 C708.02847254 1268.40297401 706.50994006 1265.41325923 705 1262 C703.98235507 1259.97755919 702.96160549 1257.95667706 701.9375 1255.9375 C701.45796875 1254.94878906 700.9784375 1253.96007813 700.484375 1252.94140625 C690.88063537 1233.91083798 676.35664337 1221.28341149 657 1213 C656.36803711 1212.72462402 655.73607422 1212.44924805 655.08496094 1212.16552734 C645.24144029 1208.07474688 635.59428547 1207.5529615 625 1207.5 C623.75903564 1207.49355469 622.51807129 1207.48710938 621.23950195 1207.48046875 C614.99997351 1207.5681298 609.94637692 1208.14229809 604.12280273 1210.33056641 C595.02101583 1213.20084814 586.86687373 1209.51542954 578.4375 1206.125 C558.86649865 1198.40898953 542.12792863 1196.43314298 522.296875 1204.5078125 C503.20581781 1213.54873165 487.91867568 1228.4808479 476.46484375 1246.05078125 C476.05911133 1246.66743652 475.65337891 1247.2840918 475.23535156 1247.91943359 C473.91488005 1250.0521441 473.91488005 1250.0521441 472.80371094 1252.67822266 C471.4295256 1255.53967204 470.20894386 1257.71324707 468 1260 C463.7590288 1261.32430217 459.77280989 1261.0347416 455.375 1260.75 C454.1590918 1260.71003906 452.94318359 1260.67007812 451.69042969 1260.62890625 C447.78783973 1260.48076998 443.89727308 1260.25069618 440 1260 C438.65075177 1259.91932381 437.30146756 1259.83924729 435.95214844 1259.75976562 C427.95906513 1259.27998988 419.97773228 1258.688936 412 1258 C411.78085937 1256.98421875 411.56171875 1255.9684375 411.3359375 1254.921875 C407.3024727 1237.04287148 399.5508961 1222.84554628 383.83984375 1212.64453125 C366.74177115 1202.74317146 349.07851322 1196.79054374 330 1192 C287.17182611 1181.23217675 249.22697453 1159.46881144 215.921875 1130.51953125 C213.08075683 1128.06963657 210.17959478 1125.71786655 207.25 1123.375 C203.01213475 1119.93058122 199.13578461 1116.28232378 195.36328125 1112.3359375 C193.37024478 1110.36596095 191.3400147 1108.55259745 189.21484375 1106.73046875 C184.95773903 1103.03534337 181.08769203 1099.06182858 177.25 1094.9375 C176.55680664 1094.19580566 175.86361328 1093.45411133 175.14941406 1092.68994141 C168.89673194 1085.96016436 162.85217071 1079.08010827 157 1072 C156.27417725 1071.12359863 156.27417725 1071.12359863 155.53369141 1070.22949219 C93.60878677 995.07137612 55.463081 899.96949177 54.73046875 751.22265625 C55.49435335 743.76138658 56.6559694 736.3768205 58 729 C58.18723633 727.92991699 58.37447266 726.85983398 58.56738281 725.75732422 C61.89572008 707.11231223 66.64502294 688.48134259 74 671 C74.30413818 670.27022949 74.60827637 669.54045898 74.92163086 668.78857422 C80.01586029 656.70958714 85.71383706 644.92924442 93 634 C96.74084905 634.61373305 100.20117149 635.71161059 103.77270508 636.96777344 C111.36325752 639.63357745 118.98659091 641.88329554 126.8125 643.75 C127.63427734 643.94819336 128.45605469 644.14638672 129.30273438 644.35058594 C131.86145381 644.94316348 134.42488908 645.48333012 137 646 C137.92522461 646.18908936 138.85044922 646.37817871 139.80371094 646.57299805 C149.14960507 648.25582868 158.41644824 648.33847064 167.88134766 648.31567383 C170.59969837 648.31252927 173.31694034 648.33600008 176.03515625 648.36132812 C191.876722 648.41955697 207.12189331 646.41579135 222.4375 642.3125 C223.39358154 642.05758789 224.34966309 641.80267578 225.3347168 641.54003906 C253.89585643 633.63799002 279.14042004 619.04835444 300 598 C308.96370364 601.85992216 313.95515575 614.12782851 318.87695312 622.04296875 C324.31673677 631.80170592 324.31673677 631.80170592 333 638 C334.956243 637.99179672 334.956243 637.99179672 337 637 C338.57169946 635.1115239 339.90347557 633.29025745 341.25 631.25 C345.6417558 624.84535612 350.26492231 618.65477077 355 612.5 C360.034135 605.93725774 364.97952485 599.33489197 369.74365234 592.57373047 C373.01917588 587.93352367 376.45518064 583.43689311 380 579 C383.12324544 580.38629244 385.24190707 581.99511571 387.64453125 584.4140625 C388.32193359 585.09339844 388.99933594 585.77273438 389.69726562 586.47265625 C390.39529297 587.18292969 391.09332031 587.89320313 391.8125 588.625 C392.49892578 589.31207031 393.18535156 589.99914062 393.89257812 590.70703125 C397.90281823 594.7514172 401.71266608 598.91600923 405.43823242 603.22265625 C414.39182611 613.41214539 425.7486853 620.62947312 437 628 C437.90153809 628.59989746 437.90153809 628.59989746 438.82128906 629.21191406 C474.68352917 652.99787368 517.1691645 662.40139039 559.65600586 662.31567383 C562.92921121 662.31250802 566.20151449 662.33608827 569.47460938 662.36132812 C581.98357573 662.3988206 593.75346973 661.53963278 606 659 C607.72511687 658.68021425 609.45034805 658.3610433 611.17578125 658.04296875 C656.51328507 648.87928631 699.11454788 629.31878434 735 600 C735.55171875 599.54979492 736.1034375 599.09958984 736.671875 598.63574219 C749.68867644 587.94232254 761.67715187 576.34232838 772 563 C772.79792969 561.99582031 773.59585938 560.99164062 774.41796875 559.95703125 C780.74494778 551.94507651 786.56713598 543.6429915 792 535 C792.37479492 534.40445313 792.74958984 533.80890625 793.13574219 533.1953125 C809.28334454 507.08550887 819.38686742 476.26189836 824 446 C824.11569336 445.25379395 824.23138672 444.50758789 824.35058594 443.73876953 C828.07886319 418.06675956 828.0723839 389.440409 823 364 C822.82307617 363.07413086 822.64615234 362.14826172 822.46386719 361.19433594 C817.91005074 337.67021675 811.09569851 315.29558145 800.03515625 294.00097656 C799.04029655 292.077894 798.06566449 290.14569258 797.09375 288.2109375 C784.9923777 264.44194503 766.88966336 240.72659878 746 224 C744.98679687 223.17242187 743.97359375 222.34484375 742.9296875 221.4921875 C697.39830603 184.69080067 640.25447326 168.34806433 581.94189453 173.4621582 C578.27463673 173.86197854 574.6401687 174.40450873 571 175 C569.58315918 175.22598877 569.58315918 175.22598877 568.13769531 175.45654297 C517.89427213 183.69849121 469.89934596 205.25404447 432.26171875 239.921875 C430.20973584 241.80728935 428.11848046 243.62770033 426 245.4375 C417.46038065 252.91181472 410.00624217 261.08844584 403 270 C402.22011719 270.96292969 401.44023438 271.92585938 400.63671875 272.91796875 C382.33135026 295.95295398 367.91711874 322.95496853 359 351 C357 350 357 350 355.66015625 346.44140625 C355.12388051 344.81632825 354.59167067 343.18990548 354.0625 341.5625 C347.83904274 323.14686991 340.14121058 305.15887426 331 288 C330.59313965 287.22495117 330.1862793 286.44990234 329.76708984 285.65136719 C318.32913429 263.92815111 304.64612358 244.20497049 287 227 C286.3915625 226.35804688 285.783125 225.71609375 285.15625 225.0546875 C258.97490887 197.82988712 220.51611598 178.15762304 184 170 C183.17612793 169.8158252 182.35225586 169.63165039 181.50341797 169.44189453 C172.06753772 167.44078965 162.75816249 166.86678895 153.12890625 166.82421875 C151.06965113 166.80102971 149.01040629 166.77691275 146.95117188 166.75195312 C143.75440439 166.71687772 140.55802055 166.68748121 137.36108398 166.67407227 C134.24157243 166.6584831 131.12313025 166.61822817 128.00390625 166.57421875 C127.06398331 166.57612717 126.12406036 166.57803558 125.15565491 166.58000183 C105.74534861 166.22742385 90.95623523 152.57235644 77.359375 140.13671875 C75.31832038 138.28828021 73.23625718 136.51665115 71.125 134.75 C34.56220353 102.73919827 8.98728016 53.33673028 0 6 C-0.05679527 4.00080659 -0.07616422 1.99854923 0 0 Z " fill="#FEFEFE" transform="translate(585,258)"/>
<path d="M0 0 C2.12585938 -0.0021722 4.25118593 -0.02035295 6.37695312 -0.03930664 C51.16066997 -0.22319542 92.04467961 17.35878279 124.02539062 48.18530273 C124.72792969 48.8362793 125.43046875 49.48725586 126.15429688 50.15795898 C147.1612637 70.14640621 160.94508941 97.24404027 170.08789062 124.37280273 C170.4580127 125.47027832 170.82813477 126.56775391 171.20947266 127.69848633 C173.25337614 134.03007074 174.69268355 140.22655448 175.62866211 146.81542969 C175.90782461 149.1946701 175.90782461 149.1946701 177.02539062 151.18530273 C177.39731109 152.96935871 177.72349358 154.76307188 178.02539062 156.56030273 C178.19039062 157.51678711 178.35539062 158.47327148 178.52539062 159.45874023 C184.11048277 201.0851301 178.32753755 244.32078004 160.02539062 282.18530273 C159.37063135 283.59754746 158.71694613 285.01029076 158.06445312 286.42358398 C133.74624605 338.04622679 86.56330436 375.2964457 33.70800781 394.72460938 C22.42785031 398.6191672 10.71701404 400.90638122 -0.97460938 403.18530273 C-1.84714355 403.36609375 -2.71967773 403.54688477 -3.61865234 403.7331543 C-36.64508654 410.45197994 -71.29797267 406.83078587 -102.97460938 396.18530273 C-103.66570801 395.96148926 -104.35680664 395.73767578 -105.06884766 395.50708008 C-127.5858389 388.15873709 -147.58042586 374.98353323 -164.52294922 358.58569336 C-165.98912735 357.1712975 -167.47505084 355.7799813 -168.96289062 354.38842773 C-179.2430701 344.61626102 -194.51628266 329.76347073 -195.36914062 314.91577148 C-195.2554404 309.64387121 -193.19833725 306.28481685 -190.41210938 301.93530273 C-186.39884652 295.21746523 -183.36183068 288.55726059 -180.91210938 281.12280273 C-180.62585693 280.2671875 -180.33960449 279.41157227 -180.04467773 278.5300293 C-173.62253976 258.2371018 -175.96065048 235.72169276 -185.55639648 216.87036133 C-189.33343724 209.99942557 -194.46927165 204.69064046 -199.97460938 199.18530273 C-201.36454842 197.67811048 -202.74182364 196.15902438 -204.09960938 194.62280273 C-204.6384375 194.02338867 -205.17726563 193.42397461 -205.73242188 192.80639648 C-209.6007933 187.75805012 -208.6525157 180.16766468 -207.97460938 174.18530273 C-201.57887936 138.33308061 -181.55063201 104.47908031 -157.390625 77.75268555 C-155.99441598 76.20722659 -154.61641104 74.64703732 -153.24023438 73.08374023 C-137.83073655 55.73657114 -119.63176676 41.44638982 -99.97460938 29.18530273 C-99.37422852 28.80954102 -98.77384766 28.4337793 -98.15527344 28.04663086 C-68.66392975 9.87631019 -34.55326161 -0.00393008 0 0 Z " fill="#FEFEFE" transform="translate(1183.974609375,473.814697265625)"/>
<path d="M0 0 C42.81821745 33.06582021 78.21144638 81.79229121 85.8125 136.5625 C86.00392578 137.91408203 86.00392578 137.91408203 86.19921875 139.29296875 C86.39265933 140.91334762 86.5458026 142.53931501 86.6484375 144.16796875 C86.77557684 146.63055651 86.77557684 146.63055651 87.2890625 149.30078125 C87.66079956 152.42596606 87.71749904 154.53696399 86.8125 157.5625 C83.24439806 161.21330629 79.08016019 163.79470589 74.8125 166.5625 C60.11497847 177.67807839 50.50902214 195.67862176 46.8125 213.5625 C46.60882812 214.43777344 46.40515625 215.31304688 46.1953125 216.21484375 C40.54817008 245.03074173 46.7830611 276.10001013 55.28833008 303.71630859 C56.95742496 309.31580935 58.02387816 314.23665394 55.25 319.5625 C36.93793685 342.10042388 -0.09176868 360.0584185 -29 363.1484375 C-36.28788786 363.73719428 -43.58385094 363.78500429 -50.89160156 363.80273438 C-53.28746833 363.81239903 -55.68245965 363.84350399 -58.078125 363.875 C-87.09731104 364.07356999 -115.87758082 355.06108199 -139.1875 337.5625 C-140.01556152 336.95003418 -140.01556152 336.95003418 -140.86035156 336.32519531 C-154.23793723 326.38229555 -165.34707535 314.99413497 -175.1875 301.5625 C-175.60354492 300.99611816 -176.01958984 300.42973633 -176.44824219 299.84619141 C-207.11430981 257.47059836 -218.69850042 204.96986718 -218.5 153.4375 C-218.49751251 152.40280579 -218.49502502 151.36811157 -218.49246216 150.30206299 C-218.28834079 95.35259032 -203.59593732 39.40275645 -165.1875 -1.4375 C-164.64996094 -2.03949219 -164.11242187 -2.64148438 -163.55859375 -3.26171875 C-151.03559333 -16.72629815 -132.90394603 -26.14646631 -115.1875 -30.4375 C-114.47166748 -30.61337646 -113.75583496 -30.78925293 -113.01831055 -30.97045898 C-73.1853633 -39.94774111 -31.67610301 -23.27902583 0 0 Z " fill="#FEFEFE" transform="translate(816.1875,501.4375)"/>
<path d="M0 0 C4.65283102 3.8468288 7.11896809 9.02257134 9.8125 14.3125 C17.85058915 30.01068755 31.99366947 41.81835859 48.828125 47.328125 C67.95287024 52.95471816 87.9618518 50.42856866 105.51025391 41.19189453 C116.40071895 35.1434682 123.07900878 27.79582553 129.92626953 17.59765625 C134.24892228 11.16576913 138.8851768 4.5574116 146 1 C152.81291335 0.22753213 158.40662738 0.8798283 164 5 C168.37220089 9.19121654 171.1125655 12.76963585 171.25 19 C170.91740604 37.74620513 158.10089849 53.77646271 145.6875 66.75 C132.05640298 79.90381771 114.98577509 88.45833026 97 94 C95.824375 94.39316406 94.64875 94.78632812 93.4375 95.19140625 C69.15668526 102.56583477 37.4543216 99.86307368 15.09960938 87.99072266 C6.92368411 83.32274019 -0.3352248 77.6531235 -7 71 C-7.69609375 70.31550781 -8.3921875 69.63101563 -9.109375 68.92578125 C-21.69753314 55.72773172 -30.64007621 36.13328926 -30.25390625 17.77734375 C-29.65566641 11.2335203 -28.03981951 4.49497416 -23 0 C-15.38394551 -4.17271582 -7.63554138 -4.38336635 0 0 Z " fill="#010101" transform="translate(1080,645)"/>
<path d="M0 0 C4.31903216 4.34329638 5.91116865 10.43020128 7.44140625 16.20703125 C11.28527301 30.46208871 19.84982796 41.87897317 32.3515625 49.8671875 C50.09896885 59.91571898 69.93039871 63.51965434 90 58.625 C106.41444785 53.84376596 118.17467968 45.89570112 128.7421875 32.46875 C135.1221 24.5269502 135.1221 24.5269502 140.51953125 23.66015625 C147.26979724 23.4520716 151.98887068 24.17064493 157.3125 28.49609375 C160.74271666 31.80720567 162.07103567 34.53150625 162.3125 39.3125 C161.30002143 56.13345085 148.90635954 69.73970164 137.625 81.125 C136.95726562 81.805625 136.28953125 82.48625 135.6015625 83.1875 C121.7633932 96.24009637 102.12593737 104.0878519 83.625 107.125 C82.52027344 107.32867188 81.41554688 107.53234375 80.27734375 107.7421875 C54.24044939 112.10658081 27.27858501 107.58413825 5.2578125 92.50390625 C-14.0820722 78.01572273 -24.00532185 59.10130723 -27.59936523 35.52026367 C-29.22782769 23.527904 -28.98328898 13.7525128 -22.5625 3.125 C-16.2751975 -2.62339086 -7.51986319 -4.17770177 0 0 Z " fill="#010101" transform="translate(702.375,608.875)"/>
<path d="M0 0 C2.29710332 1.72282749 4.46770094 3.52766119 6.625 5.421875 C7.21925781 5.92203125 7.81351563 6.4221875 8.42578125 6.9375 C14.44847506 12.42022816 18.51249453 19.47507523 22.625 26.421875 C23.10710937 27.23011719 23.58921875 28.03835938 24.0859375 28.87109375 C27.34919647 35.13145936 27.94845559 41.51721813 26.625 48.421875 C22.20627394 60.4639419 13.06354183 70.93717198 5.42138672 81.04150391 C-13.23046956 105.45931678 -13.23046956 105.45931678 -25.375 133.421875 C-30.85882945 132.92542804 -30.85882945 132.92542804 -33.1328125 130.70703125 C-36.56819784 125.12207623 -39.15879504 119.58679435 -41.375 113.421875 C-41.74109375 112.48730469 -42.1071875 111.55273438 -42.484375 110.58984375 C-45.52482991 102.5839706 -47.83139629 94.43479224 -50.0625 86.171875 C-50.36003174 85.07101562 -50.65756348 83.97015625 -50.96411133 82.8359375 C-57.25679101 59.11558943 -58.24612226 34.43887946 -46.40478516 12.16992188 C-41.96829438 4.63903663 -34.99326546 -2.4591793 -26.49609375 -5.1796875 C-16.75997323 -7.00857202 -8.21756998 -5.460359 0 0 Z " fill="#FDFDFD" transform="translate(945.375,689.578125)"/>
<path d="M0 0 C1.32 0.33 2.64 0.66 4 1 C4.22042969 2.32837891 4.22042969 2.32837891 4.4453125 3.68359375 C8.31283213 25.04386019 16.96096459 42.70958161 30 60 C30.73283203 61.01513672 30.73283203 61.01513672 31.48046875 62.05078125 C39.28374251 72.11100188 52.42287828 81.62739279 65 84 C78.77794966 85.01016217 89.54493127 82.76346838 100.59765625 74.12109375 C111.44603043 64.54277313 115.46355819 50.30898843 119.46459961 36.86669922 C123.50198541 23.49801459 123.50198541 23.49801459 127 20 C128.66617115 19.95936168 130.33388095 19.957279 132 20 C132.82922435 48.93071636 131.47091945 84.41033827 111.5625 107.5 C100.29969832 119.10525173 87.46414925 124.10144401 71.31396484 124.38037109 C52.80757469 124.34252572 37.67325114 118.81058546 24 106 C3.47231982 84.23942611 -5.16571427 54.9978789 -5.1875 25.5 C-5.19974609 24.62730469 -5.21199219 23.75460937 -5.22460938 22.85546875 C-5.24224359 14.92007282 -4.83897826 6.59860672 0 0 Z " fill="#030303" transform="translate(925,1068)"/>
<path d="M0 0 C0.66 0 1.32 0 2 0 C2.01981934 0.56807373 2.03963867 1.13614746 2.06005859 1.72143555 C3.13620693 31.13120217 8.53018664 62.38353955 29 85 C29.68835938 85.78117187 30.37671875 86.56234375 31.0859375 87.3671875 C36.65223996 93.33538905 42.71709044 97.36328053 50 101 C50.81597656 101.4125 51.63195312 101.825 52.47265625 102.25 C61.70320896 106.22893873 72.09171201 106.32114222 82 107 C85.02784402 113.39754139 84.79147731 120.11414737 84 127 C81.603813 133.68856921 76.82265733 137.30024669 70.85546875 140.80859375 C57.37093667 146.43483491 41.08640486 145.59175849 27.58984375 140.54296875 C12.00992725 133.84648669 0.25177397 121.5972923 -6.1875 105.9375 C-9.36019755 97.8547249 -11.24371471 89.48420893 -13 81 C-13.17724609 80.2486377 -13.35449219 79.49727539 -13.53710938 78.72314453 C-14.46010747 73.29322853 -14.18590525 67.73389781 -14.18530273 62.23779297 C-14.187466 60.03462717 -14.20557899 57.83198207 -14.22460938 55.62890625 C-14.27366081 43.69123421 -12.96829337 32.32992845 -9.6875 20.8125 C-9.47311279 20.05001953 -9.25872559 19.28753906 -9.0378418 18.50195312 C-7.1102019 11.9057336 -4.95286382 4.95286382 0 0 Z " fill="#020202" transform="translate(811,1069)"/>
<path d="M0 0 C10.28305785 5.7536157 10.28305785 5.7536157 12.5625 10.3125 C13.38931196 17.06479765 10.89820116 20.75881953 7.5625 26.3125 C-3.01535887 44.80990765 -7.55174589 66.97811581 -1.99291992 87.94116211 C-1.4639796 89.7232841 -0.91225955 91.49859798 -0.359375 93.2734375 C0.99928167 97.7523989 1.45828695 100.68426742 0.5625 105.3125 C-1.77908986 107.70351656 -4.41726264 108.93644546 -7.4375 110.3125 C-8.13488281 110.704375 -8.83226562 111.09625 -9.55078125 111.5 C-16.22061761 115.01172371 -23.53972718 115.82385894 -30.8046875 113.58203125 C-35.13750795 111.57912368 -38.27743727 108.91146034 -41.4375 105.3125 C-42.4584375 104.2296875 -42.4584375 104.2296875 -43.5 103.125 C-50.70578191 92.664994 -51.81087869 80.82130299 -51.80810547 68.48876953 C-51.8124353 66.34454194 -51.84870882 64.20245274 -51.88671875 62.05859375 C-52.0460378 42.43471641 -46.32938406 20.57450369 -32.625 6 C-22.83992647 -3.10196463 -12.56825585 -6.01904064 0 0 Z " fill="#FCFCFC" transform="translate(1219.4375,1511.6875)"/>
<path d="M0 0 C8.94385011 3.14863507 19.57620872 8.15241743 24 17 C24.52133124 21.96163526 24.04650017 24.73867461 20.90136719 28.67822266 C20.45954102 29.19690918 20.01771484 29.7155957 19.5625 30.25 C19.11165039 30.80864746 18.66080078 31.36729492 18.19628906 31.94287109 C16.01848646 34.62892924 13.77900113 37.26070137 11.54296875 39.8984375 C2.85792811 50.22579418 -3.55753858 60.18017436 -2.984375 74.09375 C-2.94935415 75.6340885 -2.91553645 77.17445474 -2.8828125 78.71484375 C-2.82091534 81.11163923 -2.74972928 83.50701171 -2.65722656 85.90283203 C-2.1056724 101.02099371 -2.1056724 101.02099371 -5.75390625 105.47265625 C-11.68749721 110.69051544 -18.65161345 111.5261042 -26.35546875 111.2890625 C-33.23397039 110.53720265 -38.89927019 107.82269077 -43.30859375 102.38671875 C-52.13075313 89.74249626 -51.47286698 72.47356917 -48.875 57.875 C-45.00264175 38.67455702 -35.63758877 16.6400347 -19.21484375 5.03125 C-12.59112691 0.9903062 -7.86732033 -1.32887418 0 0 Z " fill="#FCFCFC" transform="translate(923,1495)"/>
<path d="M0 0 C0.74185547 -0.01160156 1.48371094 -0.02320313 2.24804688 -0.03515625 C7.95172176 -0.00468247 11.32088026 1.25838026 15.4375 5.375 C15.07551119 9.77972072 13.73666552 13.49664956 12.0390625 17.55078125 C11.31976562 19.28811523 11.31976562 19.28811523 10.5859375 21.06054688 C10.08320312 22.25744141 9.58046875 23.45433594 9.0625 24.6875 C2.84304217 39.58018613 -0.74658315 51.14297607 -0.8125 67.375 C-0.833125 68.61378906 -0.85375 69.85257813 -0.875 71.12890625 C-0.91725783 81.26022071 0.62855527 90.64124398 3.625 100.3125 C4.87998479 105.04282728 5.18107917 108.74620753 3.125 113.25 C1.4375 115.375 1.4375 115.375 -1.5625 116.375 C-6.61482485 116.85881761 -11.07579104 117.04547659 -15.75 114.9375 C-28.66359997 103.17177559 -37.55267781 86.43876131 -38.73950195 68.73461914 C-39.27223423 44.18011816 -39.27223423 44.18011816 -34.5625 32.375 C-34.18867187 31.33472656 -33.81484375 30.29445313 -33.4296875 29.22265625 C-29.04785098 17.71670805 -22.43429023 8.21830609 -11.8515625 1.70703125 C-7.7444759 0.04370995 -4.38122687 -0.06887518 0 0 Z " fill="#FCFCFC" transform="translate(1128.5625,1502.625)"/>
<path d="M0 0 C0.81082031 -0.00773437 1.62164063 -0.01546875 2.45703125 -0.0234375 C3.23691406 -0.02085938 4.01679687 -0.01828125 4.8203125 -0.015625 C5.52687988 -0.01336914 6.23344727 -0.01111328 6.96142578 -0.00878906 C8.875 0.25 8.875 0.25 11.875 2.25 C11.38770591 7.67984848 9.93347883 11.73423159 7.25 16.5 C6.89244629 17.15693848 6.53489258 17.81387695 6.16650391 18.49072266 C4.04153215 22.34311506 1.73773404 25.99335254 -0.75 29.625 C-3.69271875 34.13671983 -5.63912506 38.70187145 -7.4375 43.75 C-7.68000488 44.42595215 -7.92250977 45.1019043 -8.17236328 45.79833984 C-11.42080279 55.41509823 -12.48979194 64.94727836 -12.4375 75.0625 C-12.43621094 76.11276367 -12.43492187 77.16302734 -12.43359375 78.24511719 C-12.34723587 85.24226433 -11.54695052 91.41317346 -9.8046875 98.19140625 C-8.71020534 103.11657598 -8.30427049 108.25320566 -9.125 113.25 C-10.296875 115.0546875 -10.296875 115.0546875 -12.125 116.25 C-20.96175424 117.72279237 -27.94798943 115.67273811 -35.24609375 110.84765625 C-43.62438551 104.36992216 -47.57261979 94.4933119 -49.125 84.25 C-51.11186599 59.82792112 -46.45537974 36.15500671 -31.02734375 16.58984375 C-22.31272822 6.39973776 -13.56110874 -0.13060458 0 0 Z " fill="#FBFBFB" transform="translate(846.125,1487.75)"/>
</svg>
