<svg version="1.1" id="Layer_1" xmlns="http://www.w3.org/2000/svg" xmlns:xlink="http://www.w3.org/1999/xlink" x="0px" y="0px"
	 width="100%" viewBox="0 0 624 496" enable-background="new 0 0 624 496" xml:space="preserve">
<path fill="currentColor" opacity="1.000000" stroke="currentColor"
d="
M26.000000,551.000000
	C21.643101,551.000000 17.286201,551.000000 12.453377,550.630737
	C9.344824,547.347473 8.174294,544.116089 9.677657,540.234802
	C12.600959,532.687683 15.245600,525.022400 18.435911,517.590698
	C30.651432,489.135284 43.122498,460.789368 55.289154,432.313263
	C57.743603,426.568634 59.286060,420.434296 61.248978,414.479645
	C55.071682,419.117981 49.902035,424.218475 44.442745,428.987396
	C35.723648,436.603882 26.999252,444.243683 17.827923,451.288910
	C15.935979,452.742279 11.351526,452.702881 9.358244,451.354950
	C7.850389,450.335205 7.423879,445.666046 8.399710,443.450714
	C10.434579,438.831116 13.716429,434.760773 16.751175,430.247864
	C17.098345,429.901276 17.270905,429.747559 17.244181,429.646667
	C17.179499,429.402496 17.021898,429.182922 17.167038,429.142029
	C17.537834,428.973114 17.643341,428.615662 17.748848,428.258179
	C17.509237,428.519379 17.269627,428.780579 16.747719,429.009796
	C16.258966,429.267090 16.052509,429.556366 15.477676,429.939209
	C12.409322,431.552124 9.010647,434.384613 6.794734,431.224060
	C5.405363,429.242371 6.141697,424.872620 7.326132,422.194244
	C9.109132,418.162292 11.978961,414.569153 14.639134,410.976318
	C19.015175,405.065979 23.593254,399.305206 28.086164,393.481384
	C27.764467,393.140472 27.442772,392.799530 27.121075,392.458618
	C24.527212,394.797058 22.007666,397.225281 19.319820,399.450195
	C16.269547,401.975128 13.272715,404.664917 9.885015,406.658264
	C4.913263,409.583649 1.522919,407.521790 2.181516,401.875183
	C2.631680,398.015625 3.924821,394.133301 5.489817,390.544006
	C17.933050,362.005585 30.535240,333.536499 43.065079,305.035767
	C43.435455,304.193268 43.804985,303.214966 43.731140,302.337280
	C43.477009,299.316925 41.972973,295.963989 42.835144,293.364655
	C46.208038,283.195801 50.304924,273.267090 54.422318,263.060791
	C57.366917,258.858826 60.021938,254.845184 62.676960,250.831528
	C60.431282,251.807663 59.060123,253.388229 57.564781,254.840973
	C55.790215,256.564972 53.908745,258.178894 52.170494,259.502136
	C52.877640,257.643372 53.521767,256.135559 54.093204,254.600723
	C68.871964,214.905777 88.694473,178.890808 126.340416,155.454651
	C116.100464,126.505974 121.019913,100.039215 141.137878,76.304031
	C138.100784,71.391655 134.988495,66.663712 132.258621,61.724403
	C131.585907,60.507244 132.158279,58.601944 132.158279,56.804188
	C127.650398,51.639515 122.061165,46.642185 122.465233,37.988377
	C123.983185,38.557060 124.880226,38.893124 125.906052,39.511932
	C126.584396,40.150776 127.133965,40.506878 127.683525,40.862984
	C127.853546,40.656590 128.023560,40.450199 128.193573,40.243805
	C127.753922,39.643379 127.314270,39.042957 126.759369,38.099670
	C124.630783,32.519855 122.451042,27.336868 120.722527,22.007532
	C120.296822,20.695011 120.918694,17.952509 121.807976,17.558681
	C123.148880,16.964849 125.479919,17.353094 126.802116,18.220343
	C129.982330,20.306309 132.787338,22.956236 135.803375,25.301945
	C146.901840,33.933735 157.949799,42.634827 169.228516,51.025177
	C170.713760,52.130058 173.611771,52.250565 175.540237,51.707523
	C204.070480,43.673645 232.492462,43.590343 260.991272,51.965546
	C263.843109,52.803642 267.992676,52.787964 270.304047,51.277409
	C279.579651,45.215530 288.422852,38.481728 297.313171,31.845264
	C301.433014,28.769886 305.097534,25.050993 309.366150,22.224428
	C311.154907,21.039946 313.975647,21.413891 316.327209,21.079315
	C316.640625,23.533146 317.792603,26.265387 317.089905,28.381834
	C315.700348,32.566929 313.285095,36.411476 311.050049,40.580200
	C310.660004,41.113880 310.513763,41.464172 310.367523,41.814461
	C311.013336,41.647305 311.659180,41.480148 312.713287,41.142593
	C318.159943,39.586082 316.164429,44.108208 315.622437,44.904427
	C312.507721,49.480003 308.895935,53.716534 305.477112,58.087078
	C305.201691,58.439159 305.109558,58.934639 304.854156,59.552383
	C305.892670,59.856075 306.798096,60.120850 308.213501,60.534760
	C304.622589,66.453560 301.102234,72.256027 297.600342,78.028091
	C298.107239,78.808090 298.434357,79.384308 298.829651,79.909172
	C319.480713,107.329605 321.655579,136.244156 305.987305,166.685333
	C305.372162,167.880417 305.324249,169.880707 305.891327,171.095230
	C317.108337,195.118546 318.314270,220.122162 312.644470,245.551910
	C310.378174,255.716476 306.526550,265.527557 303.396576,275.499542
	C302.883026,275.344543 302.369507,275.189545 301.855988,275.034515
	C301.976440,273.560547 302.187927,272.086700 302.190247,270.612549
	C302.192322,269.295807 301.963470,267.978729 301.732635,265.584503
	C295.782837,292.936432 283.787628,315.804749 265.074280,335.061554
	C264.938751,334.934631 264.670380,334.677948 264.732330,334.304504
	C265.305115,332.379150 265.815948,330.827301 266.326782,329.275421
	C264.821106,329.427094 264.197571,329.953430 263.813263,330.618103
	C257.400787,341.708710 248.865005,351.016571 239.181641,359.240784
	C234.145508,363.517975 229.041183,368.413208 223.074814,370.728516
	C214.702301,373.977600 208.689331,379.591492 201.339478,386.126709
	C205.801331,388.037262 209.271149,389.883392 212.958817,391.027130
	C220.657166,393.414795 228.076660,397.468567 236.708191,394.926971
	C238.861786,394.292847 241.555038,395.637207 243.805038,395.157166
	C250.439499,393.741730 256.088226,395.349030 259.968048,401.083710
	C261.560547,403.437592 263.110504,403.961731 265.625153,403.635193
	C273.344482,402.632874 281.098969,401.882721 288.795074,400.734802
	C290.436676,400.489929 292.460297,399.351074 293.341522,397.995697
	C302.710785,383.585419 315.760712,374.193756 332.000000,369.000000
	C332.000000,372.030609 332.000000,375.061188 331.663269,378.603302
	C325.004700,386.481506 318.682892,393.848236 312.545502,401.000000
	C318.542542,401.000000 325.271271,401.000000 332.000000,401.000000
	C332.000000,402.714355 332.000000,404.428711 331.600342,406.704987
	C324.938080,407.915497 318.675476,408.564056 313.128967,409.138458
	C316.753418,413.093506 320.381561,417.141937 324.112640,421.093170
	C326.667572,423.798859 329.365845,426.369171 332.000000,429.000000
	C332.000000,431.041656 332.000000,433.083344 331.597656,435.605408
	C316.323364,433.033447 304.020844,425.744354 294.394501,413.940887
	C293.485138,412.825836 291.937531,411.390503 290.768951,411.461700
	C282.038574,411.993713 273.329010,412.867828 264.725403,413.624878
	C264.372101,425.315063 259.121094,430.666534 251.316254,428.121094
	C244.419601,435.685303 241.668259,436.632843 236.718369,433.148438
	C229.417953,440.289398 222.391296,439.979767 220.252396,432.808502
	C222.258942,432.259155 224.285049,431.704468 226.378555,431.131317
	C224.324890,427.582336 222.711990,424.795044 220.950058,421.750214
	C214.120743,423.955139 207.228821,426.180237 200.255600,428.431610
	C201.832474,435.313690 200.413559,440.817200 195.056900,444.797729
	C191.144348,447.705170 189.851852,447.118347 188.468796,441.989532
	C188.131805,443.033661 187.936111,443.810516 187.635452,444.544373
	C185.405746,449.986633 180.341217,454.260895 176.582458,452.850647
	C173.802582,451.807678 172.588348,452.829773 170.769791,454.203094
	C165.473083,458.202942 161.686462,457.533447 158.611450,452.111450
	C160.533157,451.398804 162.427124,450.696442 164.649277,449.872406
	C162.721756,447.467499 161.196152,445.564056 159.119873,442.973541
	C150.291885,448.615387 141.345749,454.235077 132.534164,460.058350
	C131.030457,461.052063 129.818130,462.766510 128.952682,464.402710
	C120.968948,479.496613 113.604034,494.947968 104.962639,509.650940
	C100.747070,516.823547 94.554756,522.974548 88.617653,528.952820
	C83.456757,534.149475 79.196678,533.792053 76.085999,529.766602
	C71.171234,532.897461 66.535263,536.469604 61.354134,538.860229
	C59.145214,539.879456 55.472305,539.043701 53.127289,537.800720
	C52.190681,537.304260 52.582123,533.307739 53.182606,531.128662
	C54.195702,527.452087 55.857071,523.954102 57.012997,520.980042
	C46.809219,530.857117 36.404610,540.928528 26.000000,551.000000
M149.313843,402.769592
	C148.333099,403.365692 147.352356,403.961823 146.029251,404.765991
	C147.693924,405.970673 148.337326,406.457092 149.002228,406.912140
	C149.825058,407.475220 150.764145,407.906555 151.483704,408.576630
	C160.355591,416.838837 170.879181,415.212524 181.306717,413.375610
	C186.064957,412.537415 190.111954,413.022644 193.810837,416.342438
	C194.830124,417.257263 196.750885,418.047394 197.942825,417.725922
	C201.579544,416.745026 205.062637,415.194519 207.967361,414.105011
	C206.813065,412.428192 205.769547,411.002533 204.828751,409.512024
	C204.257721,408.607330 204.095245,407.117615 203.322281,406.719391
	C197.297821,403.615448 191.407791,400.165344 184.178238,403.992279
	C179.622131,406.403961 176.448334,404.922852 173.948532,400.329651
	C173.349686,399.229340 172.719711,398.146027 172.125671,397.093170
	C163.515335,401.001587 161.015472,400.989838 159.248459,396.749664
	C156.082642,398.627258 152.973251,400.471405 149.313843,402.769592
M163.885345,100.470673
	C160.490036,113.720749 172.348251,128.074341 185.871094,127.082977
	C199.512787,126.082901 206.251160,114.997894 199.488358,104.491402
	C197.854385,110.114090 194.365158,113.686996 188.448349,114.282883
	C182.919083,114.839722 178.164062,113.382576 175.313477,108.137718
	C171.477982,101.080681 173.383072,94.941818 178.893936,89.469238
	C171.919174,87.655876 169.291489,88.708321 165.978165,94.605171
	C165.093658,96.179337 164.588867,97.966858 163.885345,100.470673
M249.474045,125.236069
	C259.236481,128.810181 268.685120,126.313400 274.398010,118.649956
	C279.979370,111.162941 279.999451,100.316315 274.694305,92.593033
	C271.906616,88.534698 268.815033,86.545364 264.132172,89.547821
	C271.253143,99.091125 271.033875,108.084755 263.095825,112.750832
	C260.596619,114.219872 257.043762,114.810516 254.130386,114.467522
	C248.333282,113.785019 244.702164,109.766342 242.522888,104.200104
	C237.917816,114.178421 238.551804,118.133049 245.340500,122.928070
	C246.420212,123.690712 247.606323,124.302711 249.474045,125.236069
M158.512222,323.990326
	C159.808502,321.199951 161.104782,318.409607 162.401062,315.619232
	C161.990723,315.424408 161.580383,315.229584 161.170044,315.034760
	C160.459991,316.106995 159.742355,317.174347 159.041061,318.252289
	C151.283890,330.175751 142.449295,341.138947 130.625961,349.309692
	C128.545517,350.747437 125.602234,350.993988 123.638428,352.532349
	C118.043732,356.914948 113.103012,362.206726 107.239456,366.151550
	C101.017776,370.337311 94.032066,373.387451 87.380013,376.933533
	C118.730438,370.026886 143.431213,354.121857 158.512222,323.990326
M223.962936,140.581345
	C226.382172,136.359894 228.801422,132.138443 231.780945,126.939354
	C230.850311,122.801445 227.088974,119.765556 221.709747,119.384598
	C215.582520,118.950668 212.971649,123.784622 210.915405,127.209869
	C214.777695,133.574738 218.282883,139.351135 221.828354,145.193893
	C222.422668,143.945984 223.055740,142.616714 223.962936,140.581345
M146.371490,429.955017
	C145.746918,429.184723 145.122360,428.414429 144.072281,427.119354
	C142.034790,431.881989 140.145996,436.297028 137.714752,441.980072
	C142.894791,438.844238 147.002777,436.357422 151.162003,433.839569
	C149.501755,432.493134 148.223190,431.456238 146.371490,429.955017
z"/>
<path fill="#FDFDFD" opacity="1.000000" stroke="none"
	d="
M332.000000,368.531342
	C315.760712,374.193756 302.710785,383.585419 293.341522,397.995697
	C292.460297,399.351074 290.436676,400.489929 288.795074,400.734802
	C281.098969,401.882721 273.344482,402.632874 265.625153,403.635193
	C263.110504,403.961731 261.560547,403.437592 259.968048,401.083710
	C256.088226,395.349030 250.439499,393.741730 243.805038,395.157166
	C241.555038,395.637207 238.861786,394.292847 236.708191,394.926971
	C228.076660,397.468567 220.657166,393.414795 212.958817,391.027130
	C209.271149,389.883392 205.801331,388.037262 201.339478,386.126709
	C208.689331,379.591492 214.702301,373.977600 223.074814,370.728516
	C229.041183,368.413208 234.145508,363.517975 239.181641,359.240784
	C248.865005,351.016571 257.400787,341.708710 263.813263,330.618103
	C264.197571,329.953430 264.821106,329.427094 266.326782,329.275421
	C265.815948,330.827301 265.305115,332.379150 264.496155,334.428925
	C264.208069,335.338837 264.218079,335.750885 264.228058,336.162903
	C264.555298,335.838104 264.882538,335.513275 265.209778,335.188477
	C283.787628,315.804749 295.782837,292.936432 301.732635,265.584503
	C301.963470,267.978729 302.192322,269.295807 302.190247,270.612549
	C302.187927,272.086700 301.976440,273.560547 301.855988,275.034515
	C302.369507,275.189545 302.883026,275.344543 303.396576,275.499542
	C306.526550,265.527557 310.378174,255.716476 312.644470,245.551910
	C318.314270,220.122162 317.108337,195.118546 305.891327,171.095230
	C305.324249,169.880707 305.372162,167.880417 305.987305,166.685333
	C321.655579,136.244156 319.480713,107.329605 298.829651,79.909172
	C298.434357,79.384308 298.107239,78.808090 297.600342,78.028091
	C301.102234,72.256027 304.622589,66.453560 308.213501,60.534760
	C306.798096,60.120850 305.892670,59.856075 304.854156,59.552383
	C305.109558,58.934639 305.201691,58.439159 305.477112,58.087078
	C308.895935,53.716534 312.507721,49.480003 315.622437,44.904427
	C316.164429,44.108208 318.159943,39.586082 312.465088,40.908497
	C311.637054,40.695477 311.465485,40.546146 311.293915,40.396816
	C313.285095,36.411476 315.700348,32.566929 317.089905,28.381834
	C317.792603,26.265387 316.640625,23.533146 316.327209,21.079315
	C313.975647,21.413891 311.154907,21.039946 309.366150,22.224428
	C305.097534,25.050993 301.433014,28.769886 297.313171,31.845264
	C288.422852,38.481728 279.579651,45.215530 270.304047,51.277409
	C267.992676,52.787964 263.843109,52.803642 260.991272,51.965546
	C232.492462,43.590343 204.070480,43.673645 175.540237,51.707523
	C173.611771,52.250565 170.713760,52.130058 169.228516,51.025177
	C157.949799,42.634827 146.901840,33.933735 135.803375,25.301945
	C132.787338,22.956236 129.982330,20.306309 126.802116,18.220343
	C125.479919,17.353094 123.148880,16.964849 121.807976,17.558681
	C120.918694,17.952509 120.296822,20.695011 120.722527,22.007532
	C122.451042,27.336868 124.630783,32.519855 126.476761,38.284805
	C126.132034,38.951599 125.954651,39.090393 125.777275,39.229191
	C124.880226,38.893124 123.983185,38.557060 122.465233,37.988377
	C122.061165,46.642185 127.650398,51.639515 132.158279,56.804188
	C132.158279,58.601944 131.585907,60.507244 132.258621,61.724403
	C134.988495,66.663712 138.100784,71.391655 141.137878,76.304031
	C121.019913,100.039215 116.100464,126.505974 126.340416,155.454651
	C88.694473,178.890808 68.871964,214.905777 54.093204,254.600723
	C53.521767,256.135559 52.877640,257.643372 52.201591,259.847626
	C52.801449,261.437378 53.467098,262.343231 54.132744,263.249115
	C50.304924,273.267090 46.208038,283.195801 42.835144,293.364655
	C41.972973,295.963989 43.477009,299.316925 43.731140,302.337280
	C43.804985,303.214966 43.435455,304.193268 43.065079,305.035767
	C30.535240,333.536499 17.933050,362.005585 5.489817,390.544006
	C3.924821,394.133301 2.631680,398.015625 2.181516,401.875183
	C1.522919,407.521790 4.913263,409.583649 9.885015,406.658264
	C13.272715,404.664917 16.269547,401.975128 19.319820,399.450195
	C22.007666,397.225281 24.527212,394.797058 27.121075,392.458618
	C27.442772,392.799530 27.764467,393.140472 28.086164,393.481384
	C23.593254,399.305206 19.015175,405.065979 14.639134,410.976318
	C11.978961,414.569153 9.109132,418.162292 7.326132,422.194244
	C6.141697,424.872620 5.405363,429.242371 6.794734,431.224060
	C9.010647,434.384613 12.409322,431.552124 15.636532,430.095154
	C16.163763,430.157532 16.485943,430.464783 16.485939,430.464783
	C13.716429,434.760773 10.434579,438.831116 8.399710,443.450714
	C7.423879,445.666046 7.850389,450.335205 9.358244,451.354950
	C11.351526,452.702881 15.935979,452.742279 17.827923,451.288910
	C26.999252,444.243683 35.723648,436.603882 44.442745,428.987396
	C49.902035,424.218475 55.071682,419.117981 61.248978,414.479645
	C59.286060,420.434296 57.743603,426.568634 55.289154,432.313263
	C43.122498,460.789368 30.651432,489.135284 18.435911,517.590698
	C15.245600,525.022400 12.600959,532.687683 9.677657,540.234802
	C8.174294,544.116089 9.344824,547.347473 11.988726,550.630737
	C8.334605,551.000000 4.669209,551.000000 1.002861,551.000000
	C1.001907,367.731506 1.001907,184.463028 1.001907,1.097272
	C111.230148,1.097272 221.460403,1.097272 332.000000,1.097272
	C332.000000,123.354057 332.000000,245.708374 332.000000,368.531342
z"/>
<path fill="#FDFDFD" opacity="1.000000" stroke="none"
	d="
M26.468658,551.000000
	C36.404610,540.928528 46.809219,530.857117 57.012997,520.980042
	C55.857071,523.954102 54.195702,527.452087 53.182606,531.128662
	C52.582123,533.307739 52.190681,537.304260 53.127289,537.800720
	C55.472305,539.043701 59.145214,539.879456 61.354134,538.860229
	C66.535263,536.469604 71.171234,532.897461 76.085999,529.766602
	C79.196678,533.792053 83.456757,534.149475 88.617653,528.952820
	C94.554756,522.974548 100.747070,516.823547 104.962639,509.650940
	C113.604034,494.947968 120.968948,479.496613 128.952682,464.402710
	C129.818130,462.766510 131.030457,461.052063 132.534164,460.058350
	C141.345749,454.235077 150.291885,448.615387 159.119873,442.973541
	C161.196152,445.564056 162.721756,447.467499 164.649277,449.872406
	C162.427124,450.696442 160.533157,451.398804 158.611450,452.111450
	C161.686462,457.533447 165.473083,458.202942 170.769791,454.203094
	C172.588348,452.829773 173.802582,451.807678 176.582458,452.850647
	C180.341217,454.260895 185.405746,449.986633 187.635452,444.544373
	C187.936111,443.810516 188.131805,443.033661 188.468796,441.989532
	C189.851852,447.118347 191.144348,447.705170 195.056900,444.797729
	C200.413559,440.817200 201.832474,435.313690 200.255600,428.431610
	C207.228821,426.180237 214.120743,423.955139 220.950058,421.750214
	C222.711990,424.795044 224.324890,427.582336 226.378555,431.131317
	C224.285049,431.704468 222.258942,432.259155 220.252396,432.808502
	C222.391296,439.979767 229.417953,440.289398 236.718369,433.148438
	C241.668259,436.632843 244.419601,435.685303 251.316254,428.121094
	C259.121094,430.666534 264.372101,425.315063 264.725403,413.624878
	C273.329010,412.867828 282.038574,411.993713 290.768951,411.461700
	C291.937531,411.390503 293.485138,412.825836 294.394501,413.940887
	C304.020844,425.744354 316.323364,433.033447 331.597656,436.042908
	C332.000000,474.293488 332.000000,512.586975 332.000000,551.000000
	C230.312469,551.000000 128.624893,551.000000 26.468658,551.000000
z"/>
<path fill="#F8F8F8" opacity="1.000000" stroke="none"
	d="
M332.000000,400.531433
	C325.271271,401.000000 318.542542,401.000000 312.545502,401.000000
	C318.682892,393.848236 325.004700,386.481506 331.663269,379.057404
	C332.000000,386.020966 332.000000,393.041901 332.000000,400.531433
z"/>
<path fill="#F7F7F7" opacity="1.000000" stroke="none"
	d="
M332.000000,428.531433
	C329.365845,426.369171 326.667572,423.798859 324.112640,421.093170
	C320.381561,417.141937 316.753418,413.093506 313.128967,409.138458
	C318.675476,408.564056 324.938080,407.915497 331.600342,407.133453
	C332.000000,414.020966 332.000000,421.041901 332.000000,428.531433
z"/>
<path fill="#F7F7F7" opacity="1.000000" stroke="none"
	d="
M149.588852,402.542542
	C152.973251,400.471405 156.082642,398.627258 159.248459,396.749664
	C161.015472,400.989838 163.515335,401.001587 172.125671,397.093170
	C172.719711,398.146027 173.349686,399.229340 173.948532,400.329651
	C176.448334,404.922852 179.622131,406.403961 184.178238,403.992279
	C191.407791,400.165344 197.297821,403.615448 203.322281,406.719391
	C204.095245,407.117615 204.257721,408.607330 204.828751,409.512024
	C205.769547,411.002533 206.813065,412.428192 207.967361,414.105011
	C205.062637,415.194519 201.579544,416.745026 197.942825,417.725922
	C196.750885,418.047394 194.830124,417.257263 193.810837,416.342438
	C190.111954,413.022644 186.064957,412.537415 181.306717,413.375610
	C170.879181,415.212524 160.355591,416.838837 151.483704,408.576630
	C150.764145,407.906555 149.825058,407.475220 149.002228,406.912140
	C148.337326,406.457092 147.693924,405.970673 146.029251,404.765991
	C147.352356,403.961823 148.333099,403.365692 149.588852,402.542542
z"/>
<path fill="#F6F6F6" opacity="1.000000" stroke="none"
	d="
M163.897552,100.063553
	C164.588867,97.966858 165.093658,96.179337 165.978165,94.605171
	C169.291489,88.708321 171.919174,87.655876 178.893936,89.469238
	C173.383072,94.941818 171.477982,101.080681 175.313477,108.137718
	C178.164062,113.382576 182.919083,114.839722 188.448349,114.282883
	C194.365158,113.686996 197.854385,110.114090 199.488358,104.491402
	C206.251160,114.997894 199.512787,126.082901 185.871094,127.082977
	C172.348251,128.074341 160.490036,113.720749 163.897552,100.063553
z"/>
<path fill="#F5F5F5" opacity="1.000000" stroke="none"
	d="
M249.108643,125.110214
	C247.606323,124.302711 246.420212,123.690712 245.340500,122.928070
	C238.551804,118.133049 237.917816,114.178421 242.522888,104.200104
	C244.702164,109.766342 248.333282,113.785019 254.130386,114.467522
	C257.043762,114.810516 260.596619,114.219872 263.095825,112.750832
	C271.033875,108.084755 271.253143,99.091125 264.132019,89.548294
	C268.815033,86.545364 271.906616,88.534698 274.694305,92.593033
	C279.999451,100.316315 279.979370,111.162941 274.398010,118.649956
	C268.685120,126.313400 259.236481,128.810181 249.108643,125.110214
z"/>
<path fill="#F0F0F0" opacity="1.000000" stroke="none"
	d="
M158.329239,324.316345
	C143.431213,354.121857 118.730438,370.026886 87.380013,376.933533
	C94.032066,373.387451 101.017776,370.337311 107.239456,366.151550
	C113.103012,362.206726 118.043732,356.914948 123.638428,352.532349
	C125.602234,350.993988 128.545517,350.747437 130.625961,349.309692
	C142.449295,341.138947 151.283890,330.175751 159.041061,318.252289
	C159.742355,317.174347 160.459991,316.106995 161.170044,315.034760
	C161.580383,315.229584 161.990723,315.424408 162.401062,315.619232
	C161.104782,318.409607 159.808502,321.199951 158.329239,324.316345
z"/>
<path fill="#F6F6F6" opacity="1.000000" stroke="none"
	d="
M223.825867,140.934387
	C223.055740,142.616714 222.422668,143.945984 221.828354,145.193893
	C218.282883,139.351135 214.777695,133.574738 210.915405,127.209869
	C212.971649,123.784622 215.582520,118.950668 221.709747,119.384598
	C227.088974,119.765556 230.850311,122.801445 231.780945,126.939354
	C228.801422,132.138443 226.382172,136.359894 223.825867,140.934387
z"/>
<path fill="#EFEFF0" opacity="1.000000" stroke="none"
	d="
M146.658066,430.187195
	C148.223190,431.456238 149.501755,432.493134 151.162003,433.839569
	C147.002777,436.357422 142.894791,438.844238 137.714752,441.980072
	C140.145996,436.297028 142.034790,431.881989 144.072281,427.119354
	C145.122360,428.414429 145.746918,429.184723 146.658066,430.187195
z"/>
<path fill="#E3E4E5" opacity="1.000000" stroke="none"
	d="
M54.422325,263.060791
	C53.467098,262.343231 52.801449,261.437378 52.104698,260.186005
	C53.908745,258.178894 55.790215,256.564972 57.564781,254.840973
	C59.060123,253.388229 60.431282,251.807663 62.676960,250.831528
	C60.021938,254.845184 57.366917,258.858826 54.422325,263.060791
z"/>
<path fill="#FDFDFD" opacity="1.000000" stroke="none"
	d="
M126.592010,38.627666
	C127.314270,39.042957 127.753922,39.643379 128.193573,40.243805
	C128.023560,40.450199 127.853546,40.656590 127.683525,40.862984
	C127.133965,40.506878 126.584396,40.150776 125.906052,39.511932
	C125.954651,39.090393 126.132034,38.951599 126.592010,38.627666
z"/>
<path fill="#FDFDFD" opacity="1.000000" stroke="none"
	d="
M312.056793,41.078899
	C311.659180,41.480148 311.013336,41.647305 310.367523,41.814461
	C310.513763,41.464172 310.660004,41.113880 311.050049,40.580200
	C311.465485,40.546146 311.637054,40.695477 312.056793,41.078899
z"/>
<path fill="#FDFDFD" opacity="1.000000" stroke="none"
	d="
M17.030020,429.041779
	C17.269627,428.780579 17.509237,428.519379 17.748848,428.258179
	C17.643341,428.615662 17.537834,428.973114 17.202446,429.159607
	C16.972565,428.988647 17.030022,429.041779 17.030020,429.041779
z"/>
<path fill="#FDFDFD" opacity="1.000000" stroke="none"
	d="
M16.004908,430.001587
	C16.052509,429.556366 16.258966,429.267090 16.747723,429.009796
	C17.030022,429.041779 16.972565,428.988647 16.937157,428.971039
	C17.021898,429.182922 17.179499,429.402496 17.244181,429.646667
	C17.270905,429.747559 17.098345,429.901276 16.751179,430.247864
	C16.485943,430.464783 16.163763,430.157532 16.004908,430.001587
z"/>
<path fill="#010101" opacity="1.000000" stroke="none"
	d="
M265.074280,335.061554
	C264.882538,335.513275 264.555298,335.838104 264.228058,336.162903
	C264.218079,335.750885 264.208069,335.338837 264.434204,334.802368
	C264.670380,334.677948 264.938751,334.934631 265.074280,335.061554
z"/>
</svg>
