<svg version="1.1" id="Layer_1" xmlns="http://www.w3.org/2000/svg" xmlns:xlink="http://www.w3.org/1999/xlink" x="0px" y="0px"
	 width="100%" viewBox="0 0 624 496" enable-background="new 0 0 624 496" xml:space="preserve">
<path fill="currentColor" opacity="1.000000" stroke="none"
	d="
M421.747131,27.599422
	C446.404938,21.604076 470.943115,17.209202 495.636444,13.660226
	C507.304474,11.983271 519.000061,10.496437 530.688110,8.961832
	C532.166321,8.767746 533.687317,8.654383 535.167358,8.771140
	C538.163574,9.007500 538.857300,10.668591 537.529907,13.236561
	C536.427734,15.368884 534.561584,16.776974 532.685730,18.191839
	C518.052063,29.229298 500.930542,34.634884 483.744995,40.295685
	C486.223145,40.065273 488.698181,39.711544 491.180573,39.648907
	C492.767548,39.608871 494.768677,39.161289 495.689667,40.967686
	C496.698914,42.947159 494.763641,43.947552 493.716919,45.097313
	C486.032288,53.538322 475.902008,57.742355 465.373077,61.141716
	C460.172821,62.820652 454.851715,64.125267 449.602600,66.143845
	C453.573303,66.373100 457.543976,66.602364 461.720764,66.843521
	C461.946442,70.652328 459.262177,72.323448 457.090973,74.148209
	C447.379883,82.309875 435.483185,85.730057 423.674408,89.306808
	C420.990051,90.119873 418.282288,90.855614 414.128693,92.043541
	C418.741943,93.292465 422.004303,92.414375 425.165588,92.717079
	C426.889221,92.882126 429.150787,92.039047 430.064331,94.188454
	C430.938324,96.244858 429.112000,97.510300 427.927917,98.864517
	C420.601166,107.243965 410.843933,111.288116 400.514221,114.416321
	C397.293610,115.391647 393.650696,115.461632 390.834106,118.054100
	C391.269135,118.608223 391.488708,119.196663 391.845703,119.297279
	C399.816315,121.543724 400.257477,122.457581 394.239929,128.332779
	C386.810333,135.586578 377.555939,139.757599 367.537262,142.259232
	C366.251923,142.580154 364.948395,142.832703 363.674164,143.191147
	C363.231323,143.315720 362.851685,143.664886 362.045197,144.151718
	C364.083801,146.142731 366.518463,145.452164 368.637726,145.780121
	C373.191650,146.484848 373.870148,147.892365 371.239563,151.578506
	C366.274628,158.535675 359.481079,163.246979 352.029755,167.168457
	C350.454071,167.997696 348.505554,168.264542 347.390686,169.907104
	C352.309601,173.767197 352.390930,175.144760 347.728516,179.744507
	C344.381287,183.046738 340.617188,185.747711 336.125122,187.363922
	C333.721527,188.228714 331.207733,189.063431 333.132324,192.641968
	C334.182953,194.595459 332.592987,196.080536 331.382019,197.459305
	C326.993927,202.455307 321.369171,205.643753 315.436676,208.403137
	C313.522980,209.293228 311.227264,209.616470 309.782501,212.114273
	C313.264404,217.466675 318.383179,221.475708 322.994019,225.937286
	C347.723236,249.866104 377.768097,262.363434 411.381165,267.669250
	C441.755829,272.463867 472.236908,276.138031 502.867798,278.798462
	C530.341797,281.184692 557.856079,283.219147 585.221924,286.729462
	C591.480164,287.532196 597.691467,288.707550 603.916016,289.760590
	C605.364258,290.005554 606.913940,290.201385 607.873596,292.107697
	C604.758179,294.363647 601.113525,293.553711 597.998962,293.081787
	C590.359497,291.924255 582.713684,292.156281 575.077209,292.140015
	C553.250427,292.093536 531.403442,291.747070 509.602753,292.555054
	C494.205444,293.125702 478.861572,295.261810 462.950867,295.587402
	C463.609131,298.890991 461.679718,300.119446 459.084351,300.758514
	C448.230103,303.431061 438.006134,308.778229 426.423981,308.403351
	C425.151642,308.362183 423.861115,308.883820 422.099182,309.241943
	C424.490295,314.012665 421.904846,315.977539 418.050598,317.352661
	C414.242279,318.711334 410.358032,319.474701 406.318756,319.465698
	C404.517426,319.461700 402.657654,319.249756 401.276184,320.717010
	C401.231720,322.767975 402.825775,323.729187 403.709473,325.078796
	C418.873718,348.237946 438.344421,367.451721 459.217621,385.338715
	C477.448730,400.961578 496.816376,415.093781 516.898865,428.229523
	C528.324097,435.702637 539.959534,442.854248 551.482849,450.178040
	C552.794678,451.011749 555.257019,451.518402 554.390198,453.550049
	C553.295837,456.115082 551.238220,454.283539 549.721802,453.616058
	C532.183777,445.896332 515.026428,437.391327 498.142578,428.337860
	C467.889374,412.115417 438.369629,394.643799 409.603607,375.913544
	C380.270569,356.814026 351.881805,336.400757 325.042084,313.908356
	C319.089783,308.920197 311.846771,308.790527 304.964386,307.451233
	C282.525726,303.084717 260.526550,297.438843 239.774765,287.559113
	C204.157379,270.602020 178.071533,243.966431 159.925110,209.227386
	C157.844162,205.243698 155.792480,201.236786 153.932053,197.147446
	C149.766129,187.990448 144.529755,179.654419 137.248962,172.553513
	C131.455093,166.902802 126.906136,160.062347 125.011742,152.202515
	C120.937309,135.297897 110.239426,125.180229 94.224167,119.840828
	C92.421730,119.239899 90.279854,119.030357 88.817818,116.590385
	C93.084244,113.342064 98.328453,113.272995 103.098442,111.928299
	C103.567932,111.795952 104.101990,111.784355 104.590530,111.844048
	C112.664055,112.830582 118.809189,109.731300 125.305328,104.740364
	C146.366272,88.559410 178.494507,93.541618 194.613617,114.596550
	C198.154373,119.221497 201.451935,124.071594 205.774658,128.034348
	C211.081375,132.899170 214.024826,132.834061 218.799072,127.383209
	C224.277679,121.128174 229.454956,114.610222 234.817322,108.252197
	C246.772873,94.076813 262.057007,84.514107 278.509277,76.458374
	C323.003357,54.672188 369.841675,39.763832 417.956238,28.542091
	C419.089172,28.277863 420.208771,27.956438 421.747131,27.599422
z"/>
<path fill="#000000" opacity="1.000000" stroke="none"
	d="
M170.899292,238.138580
	C185.214478,257.525879 202.881378,272.739655 223.015244,285.079742
	C215.219223,297.349548 207.314423,304.217224 201.873032,299.119904
	C199.859818,300.112244 199.646194,302.280701 198.830780,304.005707
	C196.637314,308.646027 193.474899,312.393524 189.151108,315.171661
	C183.343414,318.903198 182.543900,318.704132 179.517609,312.583649
	C177.275665,313.407318 177.252808,315.655823 176.532715,317.369019
	C172.910782,325.986176 168.024994,333.591644 159.863419,338.623535
	C155.053131,341.589233 153.893280,341.009918 152.371674,335.552124
	C151.633621,332.904846 151.908691,329.885132 149.286057,327.097107
	C148.200439,331.094391 147.319229,334.698395 146.240677,338.242340
	C143.143188,348.419952 138.496582,357.724823 130.652451,365.158905
	C129.688705,366.072235 128.685959,366.974670 127.585144,367.707733
	C123.599731,370.361786 122.175354,369.705597 121.293175,365.035095
	C120.506561,360.870605 121.288574,356.404877 118.787155,352.092712
	C116.493240,355.820190 116.404297,359.864655 115.389664,363.577087
	C112.054970,375.778351 107.031288,387.077087 98.761734,396.795563
	C96.469559,399.489380 93.870491,401.812408 90.921150,403.712646
	C87.467506,405.937775 86.107231,405.289154 85.962738,401.191772
	C85.787132,396.212372 85.921021,391.222076 85.591469,386.147888
	C82.193169,394.428101 79.275604,402.853149 75.583115,410.976227
	C70.775742,421.551941 64.590973,431.141785 56.322182,439.318787
	C54.385422,441.234039 52.492577,443.580078 49.048599,442.952850
	C47.465965,439.323120 48.938332,435.342468 47.604382,431.164856
	C43.494465,440.310455 39.822189,449.028595 35.691395,457.523773
	C31.384613,466.380859 26.287430,474.787476 19.111868,481.714691
	C16.855869,483.892578 14.567978,486.076385 11.274989,486.405731
	C9.100161,484.319458 10.174703,482.114441 10.506192,480.115173
	C16.989885,441.011475 26.571920,402.661041 38.510593,364.877808
	C46.993542,338.031158 56.548237,311.564056 67.988976,285.853363
	C78.550095,262.119446 89.693993,238.564636 106.449852,218.365021
	C116.020012,206.827927 127.924957,198.044098 141.421906,191.421066
	C144.127426,190.093460 144.888550,191.449463 145.885315,193.446411
	C150.790070,203.272766 155.291809,213.297501 160.883591,222.785446
	C163.935135,227.963211 167.219467,232.959015 170.899292,238.138580
z"/>
</svg>
